<svg width="456" height="202" viewBox="0 0 456 202" fill="none" xmlns="http://www.w3.org/2000/svg">
<path d="M341.082 49.5026H315.49C315.388 49.5001 315.287 49.5261 315.2 49.5777C315.112 49.6293 315.04 49.7044 314.992 49.7947C314.944 49.885 314.923 49.9869 314.929 50.0889C314.936 50.1908 314.971 50.2889 315.03 50.3721L350.219 98.9064C350.288 98.9986 350.325 99.1107 350.325 99.2258C350.325 99.341 350.288 99.4531 350.219 99.5453L312.697 152.055C312.64 152.139 312.606 152.238 312.6 152.341C312.594 152.443 312.616 152.545 312.663 152.636C312.71 152.727 312.781 152.803 312.868 152.857C312.955 152.911 313.055 152.94 313.157 152.942H339.049C339.138 152.941 339.224 152.917 339.302 152.874C339.379 152.831 339.444 152.769 339.491 152.693L363.775 117.876L376.518 99.563C376.58 99.468 376.613 99.357 376.613 99.2436C376.613 99.1302 376.58 99.0192 376.518 98.9242L341.541 49.751C341.489 49.6767 341.421 49.6155 341.341 49.5723C341.261 49.5292 341.172 49.5053 341.082 49.5026Z" fill="#019DFF"/>
<path d="M412.238 152.942H388.166C387.956 152.941 387.75 152.888 387.566 152.789C387.381 152.69 387.223 152.548 387.105 152.374L370.827 127.69C370.595 127.36 370.471 126.966 370.471 126.563C370.471 126.159 370.595 125.766 370.827 125.436L382.139 109.145C382.264 108.966 382.431 108.82 382.625 108.719C382.819 108.617 383.034 108.565 383.252 108.565C383.471 108.565 383.686 108.617 383.88 108.719C384.073 108.82 384.24 108.966 384.366 109.145L413.281 150.901C413.416 151.094 413.496 151.321 413.512 151.556C413.529 151.792 413.481 152.028 413.373 152.238C413.266 152.448 413.103 152.624 412.903 152.749C412.703 152.873 412.473 152.939 412.238 152.942Z" fill="#019DFF"/>
<path d="M412.962 50.4255L383.977 90.1047C383.925 90.1815 383.855 90.2445 383.773 90.288C383.692 90.3315 383.601 90.3542 383.508 90.3542C383.416 90.3542 383.325 90.3315 383.243 90.288C383.161 90.2445 383.092 90.1815 383.04 90.1047L370.58 72.572C370.51 72.4733 370.473 72.3555 370.473 72.2348C370.473 72.1141 370.51 71.9964 370.58 71.8977L386.486 49.7511C386.542 49.6763 386.614 49.6152 386.697 49.5721C386.779 49.5291 386.87 49.5054 386.963 49.5027H412.485C412.592 49.5026 412.697 49.532 412.788 49.5877C412.879 49.6434 412.954 49.7232 413.003 49.8184C413.052 49.9137 413.074 50.0206 413.067 50.1277C413.06 50.2347 413.024 50.3377 412.962 50.4255Z" fill="#FC5151"/>
<path d="M65.2593 50.4082V152.037C65.255 152.273 65.161 152.498 64.9967 152.666C64.8324 152.835 64.6102 152.933 64.3756 152.942H42.8839C42.6479 152.938 42.4231 152.84 42.2579 152.671C42.0927 152.502 42.0001 152.274 42.0002 152.037V50.4082C41.9978 50.2902 42.0189 50.1729 42.0623 50.0632C42.1057 49.9535 42.1704 49.8536 42.2527 49.7693C42.335 49.685 42.4332 49.6181 42.5416 49.5724C42.65 49.5267 42.7663 49.5032 42.8839 49.5032H64.3756C64.6116 49.5078 64.8364 49.6052 65.0016 49.7744C65.1668 49.9437 65.2594 50.1712 65.2593 50.4082Z" fill="white"/>
<path d="M141.293 49.5027H121.852C113.686 49.5027 92.2829 49.5027 86.0086 49.5027C85.5399 49.5027 85.0903 49.6896 84.7589 50.0224C84.4274 50.3552 84.2412 50.8066 84.2412 51.2772V151.167C84.2412 151.638 84.4274 152.089 84.7589 152.422C85.0903 152.755 85.5399 152.942 86.0086 152.942H141.293C164.694 152.942 173.867 138.231 173.867 120.095V82.3498C173.876 78.0456 173.041 73.7817 171.409 69.8015C169.777 65.8214 167.38 62.2029 164.356 59.1528C161.331 56.1026 157.737 53.6805 153.78 52.0248C149.823 50.369 145.58 49.512 141.293 49.5027ZM150.608 113.493C150.608 125.312 145.411 129.589 132.156 129.589H110.752C110.205 129.589 107.536 129.589 107.536 128.453V74.0094C107.536 73.2641 107.978 72.8737 108.525 72.8737H132.138C142.336 72.8737 150.59 77.1504 150.59 88.9689L150.608 113.493Z" fill="white"/>
<path d="M248.611 127.211H238.183C238.04 127.207 237.901 127.169 237.775 127.101C237.649 127.034 237.541 126.937 237.458 126.82C237.458 126.82 218.847 96.1914 216.426 92.2341C216.35 92.1047 216.241 91.9975 216.111 91.9228C215.981 91.8482 215.834 91.8087 215.684 91.8082H213.669C213.435 91.8082 213.21 91.9017 213.044 92.0681C212.878 92.2345 212.785 92.4602 212.785 92.6955V152.055C212.785 152.29 212.692 152.516 212.526 152.682C212.361 152.848 212.136 152.942 211.902 152.942H190.463C190.228 152.942 190.004 152.848 189.838 152.682C189.672 152.516 189.579 152.29 189.579 152.055V50.39C189.579 50.1546 189.672 49.929 189.838 49.7626C190.004 49.5962 190.228 49.5027 190.463 49.5027H211.919C212.538 49.5027 213.139 50.4609 213.351 50.7804L213.439 50.9223C218.282 58.1625 238.766 91.0097 241.311 95.1089C241.391 95.2339 241.501 95.3367 241.631 95.408C241.76 95.4793 241.906 95.5168 242.054 95.5171H244.722C244.87 95.5168 245.016 95.4793 245.145 95.408C245.275 95.3367 245.385 95.2339 245.465 95.1089C248.01 91.0097 268.441 58.1625 273.319 50.9223L273.408 50.7804C273.62 50.4609 274.221 49.5027 274.839 49.5027H296.313C296.548 49.5027 296.772 49.5962 296.938 49.7626C297.104 49.929 297.197 50.1546 297.197 50.39V152.055C297.197 152.29 297.104 152.516 296.938 152.682C296.772 152.848 296.548 152.942 296.313 152.942H274.839C274.605 152.942 274.38 152.848 274.214 152.682C274.049 152.516 273.955 152.29 273.955 152.055V92.7133C273.955 92.478 273.862 92.2523 273.697 92.0859C273.531 91.9195 273.306 91.826 273.072 91.826H271.057C270.908 91.8228 270.762 91.8589 270.631 91.9305C270.501 92.0021 270.392 92.1068 270.315 92.2341C267.911 96.2092 249.335 126.749 249.318 126.82C249.235 126.937 249.127 127.034 249.001 127.101C248.875 127.169 248.736 127.207 248.593 127.211" fill="white"/>
</svg>
