<svg width="60" height="60" viewBox="0 0 60 60" fill="none" xmlns="http://www.w3.org/2000/svg">
<g clip-path="url(#clip0_1103_356)">
<path d="M3 15H56.3333V45H3V15Z" fill="#FF0000"/>
<path d="M27.4108 27.9637C26.8525 27.6165 26.258 27.3276 25.6497 27.0915C25.1247 27.8692 24.8191 28.8026 24.8191 29.8081C24.8191 30.3081 24.8941 30.7915 25.0386 31.247C25.2914 30.6637 25.6136 30.0942 26.0052 29.5526C26.4191 28.9637 26.8941 28.4303 27.4108 27.9637ZM25.9191 26.7359C26.5802 26.9637 27.2136 27.2609 27.8247 27.6081C27.9608 27.4887 28.1052 27.3887 28.2386 27.2859C27.5941 26.9303 26.908 26.6415 26.2052 26.422C26.1052 26.5248 26.0052 26.6248 25.9191 26.7359ZM26.5136 26.1331C27.2747 26.3359 28.0025 26.6165 28.6886 26.9803C28.8497 26.8776 29.0108 26.7859 29.1636 26.6915C28.4358 26.3192 27.6636 26.047 26.8691 25.8526C26.7413 25.9387 26.6219 26.0331 26.5136 26.1331ZM27.233 25.6276C28.0719 25.797 28.883 26.0692 29.6469 26.4415C30.4163 26.0692 31.2302 25.797 32.0608 25.6276C31.358 25.2137 30.5275 24.9748 29.6469 24.9748C28.7636 24.9748 27.9441 25.2109 27.233 25.6276ZM32.4219 25.8637C31.6247 26.0498 30.8552 26.3303 30.1275 26.6942C30.2886 26.7887 30.4413 26.8803 30.6025 26.9831C31.2969 26.6192 32.0247 26.3387 32.7775 26.1359C32.6691 26.0331 32.5497 25.9387 32.4219 25.8637ZM33.083 26.4303C32.3802 26.6415 31.7025 26.9303 31.0497 27.2859C31.1941 27.3887 31.3386 27.497 31.4719 27.6081C32.0719 27.2609 32.708 26.9637 33.3691 26.7359C33.2858 26.6248 33.1941 26.5248 33.083 26.4303ZM33.6413 27.0998C33.033 27.3276 32.4469 27.6165 31.8886 27.9637C32.4052 28.4303 32.8719 28.9637 33.2941 29.5553C33.6747 30.097 33.9969 30.6637 34.2608 31.2498C34.3969 30.7831 34.4719 30.3109 34.4719 29.8109C34.4719 28.8026 34.1663 27.8692 33.6413 27.0998ZM33.2275 30.4192C32.7191 29.597 32.1108 28.8692 31.433 28.2526C31.2802 28.3637 31.1191 28.472 30.9747 28.5831C32.1191 29.6498 33.0413 30.9887 33.6247 32.547C33.7608 32.3442 33.8858 32.1331 33.9886 31.9192C33.7775 31.4109 33.5219 30.9109 33.2275 30.4192ZM30.5413 28.2165C30.6941 28.1053 30.8469 27.997 31.008 27.8942C30.8719 27.7748 30.7275 27.6665 30.5858 27.5553C30.4247 27.6581 30.2636 27.7581 30.1025 27.8692H30.1108C30.2552 27.9803 30.3997 28.0998 30.5413 28.2165ZM29.6441 27.5387C29.8052 27.4359 29.9747 27.3359 30.1275 27.2415C29.9663 27.1387 29.8052 27.0387 29.6441 26.9442C29.483 27.0387 29.3302 27.1387 29.1691 27.2415C29.333 27.3359 29.483 27.4387 29.6441 27.5387ZM29.1886 27.8692C29.0275 27.7581 28.8747 27.6581 28.7136 27.5553C28.5691 27.6665 28.4247 27.7748 28.283 27.8859C28.4441 27.997 28.5969 28.097 28.7497 28.2081C28.8913 28.0915 29.0358 27.9803 29.1886 27.8692ZM29.6441 28.2081C29.4997 28.3192 29.3552 28.4359 29.2025 28.5637C29.3552 28.6831 29.4997 28.8081 29.6441 28.9359C29.7886 28.8081 29.933 28.6831 30.0858 28.5637C29.9413 28.447 29.7969 28.3192 29.6441 28.2081ZM29.6441 29.7915C28.9997 30.4859 28.433 31.2803 27.9747 32.172C27.6608 32.7637 27.4163 33.3831 27.2302 33.9998C27.9413 34.397 28.7636 34.6359 29.6441 34.6359C30.5247 34.6359 31.3469 34.3998 32.058 33.9998C31.8719 33.3803 31.6275 32.7637 31.3136 32.172C30.8552 31.2831 30.2969 30.4859 29.6441 29.7915ZM26.8497 33.0026C27.3997 31.597 28.2136 30.3692 29.2108 29.3526C29.0663 29.2165 28.9219 29.0915 28.7691 28.9553C27.608 30.0803 26.6775 31.4776 26.1108 33.097C26.2719 33.2748 26.4413 33.4359 26.6275 33.5887C26.6997 33.3915 26.7747 33.197 26.8497 33.0026ZM30.0775 29.3526C31.0775 30.3692 31.8886 31.597 32.4497 33.0026C32.5247 33.197 32.5941 33.3915 32.6608 33.5859C32.8469 33.4331 33.0247 33.272 33.1858 33.0942C32.6108 31.4776 31.6775 30.0803 30.5191 28.9526C30.3636 29.0887 30.2219 29.2165 30.0775 29.3526ZM25.6664 32.5442C26.2497 30.9859 27.1747 29.6581 28.3247 28.5887C28.1719 28.4692 28.0191 28.3609 27.858 28.2498C27.1802 28.8776 26.5719 29.6053 26.0636 30.4248C25.7663 30.9081 25.5136 31.4081 25.3025 31.9137C25.4025 32.1387 25.5302 32.3415 25.6664 32.5442ZM29.6719 24.5859C32.6525 24.5859 35.083 27.0165 35.083 29.997C35.083 32.9776 32.6525 35.4081 29.6719 35.4081C26.6914 35.4081 24.2608 32.9776 24.2608 29.997C24.2608 27.0165 26.6914 24.5859 29.6719 24.5859ZM32.058 23.3998C31.9052 23.5776 31.7358 23.8053 31.5663 24.1692C31.5247 24.0748 31.5247 23.9665 31.5497 23.847C31.5914 23.4581 31.7025 23.2192 31.9052 22.8915C31.9719 22.772 32.0413 22.672 32.0747 22.5442C32.2025 22.1637 32.1775 21.6553 31.8969 21.2581C31.9386 21.7081 31.8025 22.0803 31.6525 22.3081C31.6275 22.3498 31.6025 22.3748 31.5691 22.4109C31.408 22.572 31.2302 22.7331 31.0025 23.1053C30.8747 23.3081 30.7497 23.5553 30.6302 23.9442C30.5802 23.8609 30.5636 23.7581 30.5719 23.6387C30.5552 23.2415 30.6219 22.9942 30.7663 22.6303C30.8163 22.5026 30.8691 22.3942 30.8858 22.2581C30.9441 21.8692 30.8441 21.3692 30.5052 21.022C30.6163 21.4526 30.5469 21.8442 30.4302 22.097C30.4052 22.1387 30.3886 22.172 30.3636 22.2081C30.2275 22.3942 30.083 22.5803 29.9052 22.9776C29.8219 23.2053 29.7275 23.4692 29.6775 23.8665C29.6108 23.7915 29.5747 23.6887 29.5664 23.5692C29.4914 23.1803 29.5163 22.9248 29.5997 22.5442C29.633 22.4165 29.6663 22.2998 29.658 22.1637C29.658 21.7665 29.4802 21.2915 29.0913 20.9942C29.2691 21.4081 29.2608 21.8081 29.1858 22.0776C29.1691 22.1109 29.1525 22.1526 29.1358 22.1887C29.033 22.3998 28.9163 22.6026 28.8052 23.0276C28.7552 23.2637 28.7025 23.5442 28.7108 23.9415C28.6441 23.8748 28.5913 23.7803 28.558 23.6692C28.4219 23.2887 28.4052 23.0415 28.4386 22.6442C28.4469 22.5081 28.4552 22.3915 28.4386 22.2637C28.3719 21.8665 28.1163 21.4248 27.6941 21.197C27.9302 21.5776 27.983 21.9748 27.9469 22.247C27.9386 22.2887 27.9302 22.3303 27.9219 22.3748C27.8552 22.5942 27.7691 22.8165 27.7275 23.2553C27.7108 23.4915 27.7025 23.772 27.7775 24.1692C27.6941 24.1109 27.633 24.0248 27.583 23.9248C27.3886 23.5692 27.3386 23.3248 27.3025 22.9331C27.2941 22.797 27.2858 22.6803 27.2358 22.5526C27.1164 22.172 26.7941 21.7748 26.3386 21.622C26.6302 21.9526 26.7497 22.3331 26.7497 22.6109C26.7497 22.6526 26.7497 22.6942 26.7414 22.7387C26.708 22.9665 26.6664 23.2053 26.6914 23.6359C26.7164 23.872 26.7497 24.1526 26.8858 24.5331C26.7914 24.4915 26.7164 24.4137 26.6497 24.322C26.4052 24.0081 26.3191 23.772 26.2275 23.3915C26.1941 23.2553 26.1691 23.147 26.0997 23.0192C25.9219 22.672 25.5414 22.3248 25.0664 22.2415C25.4052 22.5303 25.583 22.8942 25.633 23.1637C25.6414 23.2053 25.6413 23.247 25.6413 23.2915C25.6497 23.5192 25.6414 23.7581 25.7358 24.1887C25.7941 24.4165 25.8719 24.6887 26.0664 25.0359C25.9719 25.0109 25.8886 24.9526 25.8052 24.8665C25.508 24.5942 25.383 24.3748 25.2386 24.0109C25.1886 23.8831 25.1358 23.7748 25.0608 23.6637C24.8247 23.3498 24.3997 23.072 23.908 23.0637C24.2969 23.2915 24.5275 23.6137 24.6191 23.8776C24.6275 23.9192 24.6358 23.9609 24.6441 24.0053C24.6858 24.2331 24.7108 24.472 24.8719 24.8776C24.9664 25.097 25.0914 25.3526 25.3386 25.6637C25.2358 25.6553 25.1441 25.6053 25.0497 25.5359C24.7191 25.3165 24.558 25.1137 24.3469 24.7831C24.2802 24.6637 24.2191 24.5637 24.1191 24.4692C23.8386 24.1887 23.3747 23.9776 22.8914 24.047C23.3052 24.2165 23.5858 24.5053 23.7219 24.7498C23.7386 24.7831 23.7552 24.8248 23.7719 24.8692C23.8469 25.0803 23.908 25.3109 24.1275 25.6915C24.2552 25.8942 24.4163 26.122 24.7108 26.4026C24.608 26.4026 24.508 26.3692 24.4052 26.3192C24.0413 26.1498 23.8552 25.9803 23.5997 25.6831C23.5052 25.5803 23.4302 25.4887 23.3191 25.4026C22.9969 25.1748 22.5052 25.0387 22.0414 25.1831C22.483 25.2859 22.8025 25.522 22.9636 25.7415C22.9969 25.7748 23.0136 25.8081 23.0302 25.8526C23.1414 26.0553 23.2414 26.2748 23.5219 26.6053C23.6747 26.7915 23.8691 26.9942 24.1997 27.2248C24.1052 27.2415 24.0052 27.2248 23.8858 27.1831C23.5052 27.0803 23.2941 26.9387 22.9969 26.6831C22.8941 26.5998 22.8025 26.522 22.683 26.4553C22.3275 26.2776 21.8191 26.2276 21.3802 26.4387C21.8302 26.4637 22.1858 26.6581 22.3886 26.8442C22.4136 26.8776 22.4386 26.9026 22.4636 26.947C22.608 27.1248 22.7358 27.3276 23.0636 27.6165C23.2414 27.7692 23.4691 27.9387 23.833 28.1165C23.7386 28.1498 23.6302 28.1498 23.5191 28.1248C23.1219 28.0831 22.8914 27.972 22.5525 27.7692C22.433 27.7026 22.333 27.6331 22.2052 27.5998C21.8247 27.472 21.3247 27.497 20.9275 27.7776C21.3691 27.7359 21.7497 27.872 21.9775 28.022C22.0108 28.047 22.0441 28.072 22.0719 28.1053C22.2414 28.2665 22.4025 28.4442 22.7664 28.672C22.9691 28.7998 23.2247 28.9331 23.6052 29.0442C23.5219 29.0942 23.4191 29.1109 23.2997 29.1109C22.9025 29.1192 22.6552 29.0526 22.2914 28.9081C22.1636 28.8581 22.0552 28.8053 21.9191 28.7887C21.5302 28.7303 21.0302 28.8303 20.683 29.1692C21.1136 29.0581 21.5136 29.1276 21.758 29.2442C21.7997 29.2692 21.833 29.2859 21.8691 29.3109C22.0552 29.447 22.2414 29.5915 22.6469 29.7692C22.8664 29.8526 23.1302 29.947 23.5275 29.997C23.4525 30.0637 23.3497 30.0998 23.2386 30.1081C22.8414 30.1915 22.5941 30.1581 22.2052 30.0748C22.0775 30.0415 21.9608 30.0165 21.8247 30.0165C21.4275 30.0165 20.9525 30.1942 20.6636 30.5831C21.0691 30.4053 21.4691 30.4137 21.7386 30.4887C21.7802 30.5053 21.8136 30.522 21.858 30.5387C22.0608 30.6415 22.2719 30.7581 22.6969 30.8692C22.9247 30.9192 23.2052 30.972 23.6025 30.9637C23.5358 31.0303 23.4414 31.0831 23.3302 31.1165C22.958 31.2526 22.7025 31.2692 22.3136 31.2359C22.1775 31.2276 22.0608 31.2192 21.9247 31.2359C21.5358 31.3026 21.0941 31.5581 20.8664 31.9887C21.2386 31.7442 21.6358 31.6915 21.9164 31.7276C21.958 31.7359 21.9914 31.7442 22.0358 31.7526C22.2552 31.8276 22.4775 31.9053 22.9164 31.947C23.1525 31.9637 23.433 31.972 23.8302 31.897C23.7719 31.9803 23.6858 32.0415 23.5858 32.0915C23.2386 32.2859 22.9858 32.3359 22.5941 32.372C22.458 32.3887 22.3414 32.397 22.2136 32.4387C21.833 32.5581 21.4441 32.8803 21.283 33.3359C21.6219 33.0387 22.0025 32.9303 22.283 32.922C22.3247 32.922 22.3664 32.922 22.4108 32.9303C22.6302 32.9637 22.8691 33.0053 23.308 32.9803C23.5441 32.9637 23.8247 32.922 24.1969 32.7859C24.1636 32.8803 24.0858 32.9553 23.9858 33.022C23.6719 33.2665 23.4358 33.3526 23.0552 33.4442C22.9275 33.4776 22.8108 33.5026 22.6914 33.572C22.3358 33.7498 21.9969 34.1303 21.9136 34.6053C22.1941 34.2665 22.558 34.0887 22.8275 34.0387C22.8691 34.0303 22.9108 34.0303 22.9552 34.0303C23.183 34.022 23.4302 34.0303 23.8525 33.9359C24.0802 33.8776 24.3525 33.7998 24.708 33.6053C24.683 33.6998 24.6136 33.7915 24.5302 33.8665C24.258 34.1637 24.0386 34.2887 23.6747 34.4331C23.5552 34.4915 23.4469 34.5359 23.3358 34.6109C23.0136 34.847 22.7358 35.272 22.7275 35.7637C22.9552 35.3748 23.2858 35.1442 23.5497 35.0526C23.5914 35.0442 23.6247 35.0359 23.6691 35.0276C23.8969 34.9859 24.1358 34.9609 24.5414 34.7998C24.7608 34.7053 25.0164 34.5803 25.3386 34.3415C25.3219 34.4359 25.2802 34.5276 25.2025 34.622C24.983 34.9526 24.7886 35.1137 24.4497 35.3248C24.3386 35.3915 24.2386 35.4526 24.1358 35.5526C23.8552 35.8331 23.6525 36.297 23.7219 36.7803C23.883 36.3665 24.1719 36.0859 24.4164 35.9498C24.458 35.9331 24.4914 35.9165 24.5358 35.8998C24.7552 35.8331 24.9858 35.7637 25.358 35.5442C25.5608 35.4165 25.7886 35.2553 26.0691 34.9609C26.0775 35.0637 26.0441 35.1637 25.9858 35.2665C25.8164 35.6303 25.6469 35.8165 25.3497 36.072C25.2469 36.1665 25.1552 36.2415 25.0775 36.3526C24.8497 36.6748 24.7136 37.1665 24.858 37.6303C24.9525 37.1887 25.1886 36.8692 25.4164 36.7081C25.4497 36.6831 25.483 36.6581 25.5191 36.6415C25.7219 36.5303 25.9413 36.4303 26.2802 36.1498C26.458 35.997 26.6608 35.8026 26.8886 35.472C26.9052 35.5665 26.8886 35.6748 26.8552 35.7859C26.7441 36.1665 26.6108 36.3776 26.3469 36.6748C26.2636 36.7776 26.1858 36.8692 26.1275 36.997C25.9497 37.3526 25.8914 37.8526 26.1025 38.2915C26.1358 37.8415 26.3219 37.4859 26.5163 37.2915C26.5413 37.2581 26.5747 37.2331 26.6108 37.2081C26.7969 37.0637 26.9913 36.9359 27.2802 36.6081C27.433 36.4303 27.6025 36.2026 27.7802 35.8387C27.8136 35.9331 27.8136 36.0415 27.7969 36.1526C27.7469 36.5498 27.6441 36.7803 27.4414 37.1192C27.3664 37.2387 27.3052 37.3387 27.2636 37.4665C27.1441 37.847 27.1691 38.3553 27.4497 38.7526C27.408 38.3026 27.533 37.922 27.6941 37.6942C27.7191 37.6609 27.7441 37.6276 27.7691 37.5998C27.9302 37.4303 28.108 37.2692 28.3441 36.9053C28.4636 36.7026 28.5969 36.447 28.708 36.0665C28.758 36.1498 28.7747 36.2526 28.7747 36.372C28.7914 36.7692 28.7247 37.0165 28.5719 37.3803C28.5219 37.5081 28.4775 37.6165 28.4525 37.7526C28.3941 38.1415 28.4941 38.6415 28.833 38.9887C28.7219 38.5581 28.7913 38.1581 28.9163 37.9137C28.933 37.872 28.9497 37.8387 28.9747 37.8026C29.1108 37.6165 29.2636 37.4303 29.433 37.0248C29.5275 36.8053 29.6191 36.5415 29.6691 36.1442C29.7275 36.2192 29.7636 36.322 29.7802 36.4331C29.8552 36.8303 29.8302 37.0776 29.7386 37.4665C29.7052 37.5942 29.6802 37.7109 29.6802 37.847C29.6802 38.2442 29.8663 38.7192 30.2552 39.0081C30.0775 38.6026 30.0775 38.2026 30.1608 37.9331C30.1691 37.8915 30.1858 37.8581 30.2025 37.8137C30.3052 37.6109 30.4219 37.3998 30.533 36.9748C30.583 36.747 30.6358 36.4665 30.6275 36.0692C30.7025 36.1359 30.7469 36.2303 30.7802 36.3415C30.9247 36.7137 30.933 36.9692 30.908 37.3665C30.8913 37.4942 30.883 37.6109 30.908 37.747C30.9663 38.1442 31.2219 38.5859 31.6525 38.8137C31.4163 38.4331 31.3552 38.0359 31.3997 37.7637C31.3997 37.722 31.408 37.6803 31.4247 37.6359C31.4913 37.4165 31.5775 37.1942 31.6191 36.7553C31.6275 36.5192 31.6358 36.2387 31.5691 35.8415C31.6441 35.8998 31.7136 35.9859 31.7636 36.0859C31.958 36.4331 32.008 36.6859 32.0441 37.0776C32.0525 37.2137 32.0608 37.3303 32.1025 37.4581C32.2302 37.8387 32.5441 38.2276 33.008 38.3887C32.7108 38.0498 32.5941 37.6692 32.5858 37.3887C32.5858 37.347 32.5858 37.3053 32.5941 37.2609C32.6275 37.0415 32.6775 36.8026 32.6441 36.3637C32.6275 36.1276 32.5858 35.847 32.458 35.4748C32.5413 35.5165 32.6191 35.5859 32.6858 35.6859C32.9302 35.9998 33.0247 36.2359 33.1163 36.6165C33.1413 36.7442 33.1747 36.8609 33.2358 36.9803C33.4219 37.3359 33.7941 37.6748 34.2775 37.7581C33.9302 37.4776 33.7525 37.1137 33.7025 36.8442C33.6941 36.8026 33.6941 36.7609 33.6941 36.7165C33.6941 36.4887 33.7025 36.2498 33.6108 35.8192C33.5525 35.5915 33.4664 35.3192 33.2719 34.9637C33.3747 34.9887 33.458 35.0581 33.533 35.1415C33.8302 35.4137 33.9552 35.6331 34.108 35.997C34.158 36.1165 34.2025 36.2248 34.2858 36.3359C34.5219 36.6581 34.9469 36.9359 35.4302 36.9442C35.0497 36.7165 34.8219 36.3859 34.7275 36.122C34.7108 36.0803 34.7025 36.047 34.6941 36.0026C34.6608 35.7748 34.6275 35.5359 34.4664 35.1303C34.3719 34.9109 34.2552 34.6553 34.008 34.3442C34.1108 34.3526 34.2025 34.3942 34.2969 34.472C34.6275 34.6915 34.7886 34.8859 34.9913 35.2248C35.058 35.3359 35.1275 35.4442 35.2191 35.5387C35.4997 35.8192 35.9636 36.022 36.4469 35.9526C36.033 35.7915 35.7525 35.5026 35.6247 35.2581C35.5997 35.2165 35.583 35.1831 35.5747 35.1387C35.4997 34.9192 35.4302 34.6887 35.2108 34.3165C35.083 34.1137 34.9219 33.8859 34.6358 33.6053C34.7302 33.6053 34.8302 33.6303 34.9413 33.6887C35.2969 33.8581 35.4913 34.0276 35.7469 34.3248C35.8302 34.4276 35.908 34.5192 36.0191 34.597C36.3413 34.8331 36.833 34.9609 37.2969 34.8248C36.8663 34.722 36.5441 34.4859 36.3747 34.2581C36.3497 34.2248 36.3247 34.1915 36.308 34.1553C36.1969 33.9526 36.1052 33.7331 35.8247 33.3942C35.6636 33.2165 35.4691 33.0137 35.1386 32.7859C35.2413 32.7692 35.3413 32.7859 35.4525 32.8192C35.833 32.9303 36.0441 33.072 36.3497 33.3276C36.4525 33.4109 36.5441 33.4887 36.6636 33.547C37.0191 33.7248 37.5191 33.7831 37.958 33.572C37.508 33.5387 37.1608 33.3526 36.958 33.1581C36.9247 33.1331 36.8997 33.0998 36.8747 33.0637C36.7386 32.8776 36.6025 32.6831 36.283 32.3942C36.0969 32.2415 35.8691 32.072 35.5136 31.8942C35.608 31.8609 35.708 31.8609 35.8275 31.8776C36.2163 31.9276 36.4552 32.0303 36.783 32.2415C36.9025 32.3081 37.0025 32.3692 37.1302 32.4109C37.5108 32.5303 38.0191 32.5053 38.4163 32.2248C37.9663 32.2665 37.5941 32.1415 37.3663 31.9803C37.333 31.9553 37.2997 31.9303 37.2636 31.9053C37.1025 31.7442 36.9413 31.5665 36.5691 31.3303C36.3663 31.2109 36.1191 31.0776 35.7302 30.9665C35.8136 30.9165 35.9247 30.8998 36.0358 30.8998C36.4413 30.8831 36.6886 30.9498 37.0441 31.1026C37.1719 31.1526 37.2802 31.197 37.4163 31.222C37.8052 31.2803 38.3052 31.1803 38.6525 30.8415C38.2219 30.9526 37.8302 30.8831 37.5775 30.7581C37.5441 30.7415 37.5025 30.7248 37.4663 30.6998C37.2802 30.5637 37.0941 30.4192 36.6969 30.2415C36.4775 30.1581 36.2052 30.0637 35.808 30.0053C35.883 29.947 35.9858 29.9109 36.1052 29.8942C36.4941 29.8192 36.7497 29.8442 37.1302 29.9359C37.258 29.9692 37.3747 29.9942 37.5108 29.9942C37.908 29.9942 38.383 29.8081 38.6802 29.4276C38.2663 29.597 37.8663 29.597 37.6052 29.5109C37.5636 29.5026 37.5219 29.4859 37.4858 29.4692C37.2747 29.3665 37.0719 29.2498 36.6469 29.1387C36.4108 29.0887 36.1386 29.0359 35.733 29.0442C35.7997 28.9692 35.8941 28.9248 36.0052 28.8915C36.3858 28.747 36.6413 28.7387 37.0302 28.7637C37.1663 28.7803 37.283 28.7887 37.4191 28.7637C37.808 28.7053 38.2497 28.4498 38.4775 28.0192C38.0969 28.2553 37.708 28.3165 37.4275 28.2803C37.3858 28.272 37.3441 28.2637 37.2997 28.247C37.0802 28.1803 36.858 28.0942 36.4275 28.0526C36.1913 28.0442 35.9025 28.0359 35.5136 28.1109C35.5636 28.0276 35.6497 27.9581 35.758 27.9081C36.1052 27.7137 36.3497 27.6637 36.7413 27.6276C36.8775 27.6192 36.9941 27.6109 37.1219 27.5692C37.5025 27.4415 37.8997 27.1276 38.0525 26.6637C37.7219 26.9609 37.3413 27.0776 37.0608 27.0859C37.0191 27.0859 36.9775 27.0859 36.933 27.0776C36.7052 27.0442 36.4663 26.9942 36.0358 27.0276C35.7997 27.0442 35.5191 27.0859 35.1386 27.222C35.1802 27.1276 35.258 27.0526 35.3497 26.9859C35.6636 26.7415 35.8997 26.647 36.2802 26.5553C36.4163 26.5303 36.5247 26.497 36.6525 26.4359C36.9997 26.2498 37.3469 25.8776 37.4302 25.3942C37.1413 25.7415 36.7858 25.9192 36.508 25.9692C36.4663 25.9776 36.4247 25.9776 36.3802 25.9776C36.1525 25.9776 35.9136 25.9692 35.4913 26.0609C35.2552 26.1192 34.983 26.2053 34.6358 26.3998C34.6608 26.297 34.7191 26.2137 34.8052 26.1387C35.0775 25.8415 35.2969 25.7165 35.6608 25.5637C35.7886 25.5137 35.8969 25.4692 36.008 25.3859C36.3219 25.1498 36.5997 24.7248 36.608 24.2415C36.3802 24.622 36.058 24.8498 35.7941 24.9442C35.7525 24.9609 35.7108 24.9692 35.6663 24.9776C35.4386 25.0192 35.1997 25.0442 34.7941 25.2053C34.583 25.2998 34.3275 25.4165 34.008 25.6637C34.0164 25.5692 34.0663 25.4692 34.1358 25.3748C34.3552 25.0442 34.558 24.8831 34.8886 24.6803C35.008 24.6137 35.108 24.5442 35.2025 24.4526C35.483 24.172 35.6941 23.7081 35.6247 23.2248C35.4552 23.6387 35.1663 23.9192 34.9219 24.0553C34.8886 24.072 34.8469 24.0887 34.8108 24.097C34.5913 24.172 34.3608 24.2415 33.9802 24.4609C33.7775 24.5887 33.5497 24.7498 33.2691 25.0359C33.2691 24.9415 33.3025 24.8415 33.3525 24.7387C33.5219 24.3748 33.6913 24.1887 33.9886 23.9248C34.0913 23.8415 34.183 23.7637 34.2691 23.6526C34.4969 23.3303 34.633 22.8387 34.4886 22.3748C34.3858 22.8053 34.1497 23.1276 33.9302 23.297C33.8969 23.322 33.8636 23.347 33.8191 23.3637C33.6163 23.4748 33.3969 23.5665 33.0663 23.847C32.8802 24.0081 32.6775 24.2026 32.458 24.5331C32.433 24.4387 32.4497 24.3303 32.4913 24.2192C32.6025 23.8387 32.7358 23.6276 32.9913 23.322C33.0747 23.2192 33.1608 23.1359 33.2191 23.0081C33.3969 22.6526 33.4469 22.1526 33.2358 21.7137C33.2108 22.1637 33.0247 22.5109 32.8302 22.7137C32.7969 22.747 32.7719 22.772 32.7358 22.797C32.5497 22.9331 32.3469 23.0692 32.058 23.3998Z" fill="#FFFF00"/>
</g>
<defs>
<clipPath id="clip0_1103_356">
<rect width="53.3333" height="30" fill="white" transform="translate(3 15)"/>
</clipPath>
</defs>
</svg>
