<svg width="60" height="60" viewBox="0 0 60 60" fill="none" xmlns="http://www.w3.org/2000/svg">
<g clip-path="url(#clip0_1103_54)">
<path d="M2.94409 17H56.3885V47H2.94409V17Z" fill="#00AFCA"/>
<path d="M31.8135 33.4584C33.8002 33.4584 35.4107 31.8479 35.4107 29.8612C35.4107 27.8745 33.8002 26.264 31.8135 26.264C29.8268 26.264 28.2163 27.8745 28.2163 29.8612C28.2163 31.8479 29.8268 33.4584 31.8135 33.4584Z" fill="#FEC50C"/>
<path d="M31.8137 25.7775C32.0276 25.772 32.1082 25.6386 32.1082 25.4775C32.1082 25.2636 31.8137 24.2442 31.8137 24.2442C31.8137 24.2442 31.5193 25.2636 31.5193 25.4775C31.5221 25.6386 31.5998 25.7775 31.8137 25.7775Z" fill="#FEC50C"/>
<path d="M35.9023 29.8611C35.9023 30.075 36.0357 30.1555 36.1968 30.1555C36.4107 30.1555 37.4273 29.8611 37.4273 29.8611C37.4273 29.8611 36.4107 29.5667 36.1968 29.5667C36.0357 29.5694 35.9023 29.6472 35.9023 29.8611Z" fill="#FEC50C"/>
<path d="M31.8137 33.9501C31.5998 33.9501 31.5193 34.0835 31.5193 34.2446C31.5193 34.4585 31.8137 35.4751 31.8137 35.4751C31.8137 35.4751 32.1082 34.4585 32.1082 34.2446C32.1082 34.0835 32.0276 33.9501 31.8137 33.9501Z" fill="#FEC50C"/>
<path d="M27.7332 29.8611C27.7332 29.6472 27.5999 29.5667 27.4388 29.5667C27.2249 29.5667 26.2083 29.8611 26.2083 29.8611C26.2083 29.8611 27.2249 30.1555 27.4388 30.1555C27.5916 30.1555 27.7332 30.075 27.7332 29.8611Z" fill="#FEC50C"/>
<path d="M33.3806 26.0887C33.5778 26.1692 33.7056 26.072 33.7667 25.9275C33.8472 25.7303 33.9639 24.6776 33.9639 24.6776C33.9639 24.6776 33.3 25.5053 33.2222 25.7025C33.1611 25.847 33.1833 26.0025 33.3806 26.0887Z" fill="#FEC50C"/>
<path d="M35.5948 31.4276C35.5142 31.6248 35.6115 31.7526 35.7559 31.8137C35.9531 31.8943 37.0059 32.0109 37.0059 32.0109C37.0059 32.0109 36.1781 31.3471 35.9809 31.2693C35.8281 31.2082 35.6754 31.2304 35.5948 31.4276Z" fill="#FEC50C"/>
<path d="M30.2562 33.6363C30.059 33.5557 29.9312 33.653 29.8701 33.7974C29.7895 33.9946 29.6729 35.0474 29.6729 35.0474C29.6729 35.0474 30.3367 34.2196 30.4145 34.0224C30.4756 33.8752 30.4534 33.7224 30.2562 33.6363Z" fill="#FEC50C"/>
<path d="M28.0412 28.2974C28.1218 28.1002 28.0246 27.9724 27.8801 27.9113C27.6829 27.8308 26.6301 27.7141 26.6301 27.7141C26.6301 27.7141 27.4579 28.378 27.6551 28.4558C27.8024 28.5169 27.9607 28.4947 28.0412 28.2974Z" fill="#FEC50C"/>
<path d="M34.7051 26.9723C34.8607 27.1223 35.0107 27.0834 35.1218 26.9723C35.2718 26.8223 35.7857 25.8918 35.7857 25.8918C35.7857 25.8918 34.8551 26.4057 34.7051 26.5557C34.594 26.6668 34.5551 26.8223 34.7051 26.9723Z" fill="#FEC50C"/>
<path d="M34.7051 32.7528C34.5551 32.9083 34.594 33.0583 34.7051 33.1695C34.8551 33.3195 35.7857 33.8333 35.7857 33.8333C35.7857 33.8333 35.2718 32.9028 35.1218 32.7528C35.0107 32.6417 34.8551 32.5972 34.7051 32.7528Z" fill="#FEC50C"/>
<path d="M28.9282 32.7532C28.7727 32.6032 28.6227 32.6421 28.5115 32.7532C28.3615 32.9032 27.8477 33.8337 27.8477 33.8337C27.8477 33.8337 28.7782 33.3198 28.9282 33.1698C29.0421 33.0587 29.0782 32.9032 28.9282 32.7532Z" fill="#FEC50C"/>
<path d="M28.9282 26.9723C29.0782 26.8168 29.0393 26.6668 28.9282 26.5557C28.7782 26.4057 27.8477 25.8918 27.8477 25.8918C27.8477 25.8918 28.3615 26.8223 28.5115 26.9723C28.6254 27.0834 28.7754 27.1251 28.9282 26.9723Z" fill="#FEC50C"/>
<path d="M35.5938 28.2972C35.6799 28.4944 35.8355 28.5166 35.9799 28.4583C36.1771 28.3777 37.0049 27.7166 37.0049 27.7166C37.0049 27.7166 35.9521 27.8333 35.7549 27.9138C35.6049 27.9749 35.5077 28.0972 35.5938 28.2972Z" fill="#FEC50C"/>
<path d="M33.38 33.6363C33.1828 33.7224 33.1606 33.878 33.2189 34.0224C33.2994 34.2196 33.9606 35.0474 33.9606 35.0474C33.9606 35.0474 33.8439 33.9946 33.7633 33.7974C33.7022 33.653 33.5772 33.5557 33.38 33.6363Z" fill="#FEC50C"/>
<path d="M28.0412 31.4279C27.9551 31.2307 27.7996 31.2085 27.6551 31.2668C27.4579 31.3474 26.6301 32.0085 26.6301 32.0085C26.6301 32.0085 27.6829 31.8918 27.8801 31.8112C28.0301 31.7501 28.1218 31.6251 28.0412 31.4279Z" fill="#FEC50C"/>
<path d="M30.2554 26.0887C30.4526 26.0025 30.4748 25.847 30.4165 25.7025C30.3359 25.5053 29.6748 24.6776 29.6748 24.6776C29.6748 24.6776 29.7915 25.7303 29.872 25.9275C29.9276 26.072 30.0554 26.1692 30.2554 26.0887Z" fill="#FEC50C"/>
<path d="M32.6171 25.8528C32.8254 25.8889 32.9338 25.7778 32.9643 25.6167C33.006 25.4084 32.9171 24.35 32.9171 24.35C32.9171 24.35 32.431 25.2917 32.3893 25.5C32.356 25.6611 32.4032 25.8111 32.6171 25.8528Z" fill="#FEC50C"/>
<path d="M35.8228 30.6582C35.7866 30.8665 35.8978 30.9749 36.0589 31.0054C36.2672 31.0471 37.3256 30.9582 37.3256 30.9582C37.3256 30.9582 36.3839 30.4721 36.1755 30.4304C36.0172 30.3971 35.8672 30.4499 35.8228 30.6582Z" fill="#FEC50C"/>
<path d="M31.0187 33.8693C30.8104 33.8331 30.7021 33.9443 30.6715 34.1054C30.6299 34.3137 30.7187 35.372 30.7187 35.372C30.7187 35.372 31.2048 34.4304 31.2465 34.222C31.2798 34.0637 31.2271 33.9137 31.0187 33.8693Z" fill="#FEC50C"/>
<path d="M27.8109 29.0666C27.847 28.8583 27.7359 28.7499 27.5748 28.7194C27.3664 28.6777 26.3081 28.7666 26.3081 28.7666C26.3081 28.7666 27.2498 29.2527 27.4581 29.2944C27.6192 29.3277 27.7692 29.2749 27.8109 29.0666Z" fill="#FEC50C"/>
<path d="M34.0857 26.4639C34.2663 26.5805 34.4052 26.5111 34.4968 26.3778C34.6135 26.2028 34.9357 25.1917 34.9357 25.1917C34.9357 25.1917 34.1246 25.875 34.0052 26.0528C33.9218 26.1917 33.9107 26.3444 34.0857 26.4639Z" fill="#FEC50C"/>
<path d="M35.2146 32.1334C35.098 32.314 35.1674 32.4529 35.3007 32.5446C35.4757 32.6612 36.4869 32.9835 36.4869 32.9835C36.4869 32.9835 35.8035 32.1723 35.6257 32.0529C35.4924 31.964 35.3313 31.9529 35.2146 32.1334Z" fill="#FEC50C"/>
<path d="M29.5502 33.261C29.3696 33.1443 29.2307 33.2138 29.1391 33.3471C29.0224 33.5221 28.7002 34.5332 28.7002 34.5332C28.7002 34.5332 29.5113 33.8499 29.6307 33.6721C29.7141 33.5332 29.7252 33.3777 29.5502 33.261Z" fill="#FEC50C"/>
<path d="M28.4228 27.5918C28.5395 27.4113 28.4701 27.2724 28.3367 27.1807C28.1617 27.064 27.1506 26.7418 27.1506 26.7418C27.1506 26.7418 27.834 27.5529 28.0117 27.6724C28.1451 27.7613 28.2978 27.7724 28.4228 27.5918Z" fill="#FEC50C"/>
<path d="M35.2146 27.5918C35.3368 27.7668 35.4924 27.764 35.6257 27.6724C35.8007 27.5557 36.4869 26.7418 36.4869 26.7418C36.4869 26.7418 35.4757 27.0613 35.3007 27.1807C35.1674 27.2696 35.098 27.414 35.2146 27.5918Z" fill="#FEC50C"/>
<path d="M34.0865 33.2611C33.9115 33.3833 33.9143 33.5389 34.006 33.6722C34.1226 33.8472 34.9366 34.5333 34.9366 34.5333C34.9366 34.5333 34.6171 33.5222 34.4977 33.3472C34.4088 33.2083 34.2643 33.1389 34.0865 33.2611Z" fill="#FEC50C"/>
<path d="M28.4228 32.1335C28.3006 31.9585 28.1451 31.9613 28.0117 32.053C27.8367 32.1696 27.1506 32.9835 27.1506 32.9835C27.1506 32.9835 28.1617 32.6641 28.3367 32.5446C28.4701 32.4557 28.5395 32.3113 28.4228 32.1335Z" fill="#FEC50C"/>
<path d="M29.5502 26.4639C29.7252 26.3417 29.7224 26.1861 29.6308 26.0528C29.5141 25.8778 28.7002 25.1917 28.7002 25.1917C28.7002 25.1917 29.0196 26.2028 29.1391 26.3778C29.228 26.5167 29.3669 26.5861 29.5502 26.4639Z" fill="#FEC50C"/>
<path d="M35.8222 29.0667C35.8639 29.275 36.0139 29.3278 36.1695 29.2972C36.3778 29.2556 37.3195 28.7695 37.3195 28.7695C37.3195 28.7695 36.2611 28.6778 36.0528 28.7222C35.8972 28.75 35.7806 28.8584 35.8222 29.0667Z" fill="#FEC50C"/>
<path d="M32.6165 33.8691C32.4082 33.9108 32.3554 34.0608 32.3859 34.2163C32.4276 34.4247 32.9137 35.3663 32.9137 35.3663C32.9137 35.3663 33.0054 34.308 32.9609 34.0997C32.9276 33.9441 32.8248 33.8274 32.6165 33.8691Z" fill="#FEC50C"/>
<path d="M27.8112 30.6584C27.7695 30.4501 27.6195 30.3973 27.464 30.4279C27.2556 30.4695 26.314 30.9556 26.314 30.9556C26.314 30.9556 27.3723 31.0473 27.5806 31.0029C27.7334 30.9751 27.8501 30.8668 27.8112 30.6584Z" fill="#FEC50C"/>
<path d="M31.0197 25.8524C31.228 25.8108 31.2808 25.6608 31.2503 25.5052C31.2086 25.2969 30.7225 24.3552 30.7225 24.3552C30.7225 24.3552 30.6308 25.4136 30.6752 25.6219C30.703 25.7774 30.8114 25.8969 31.0197 25.8524Z" fill="#FEC50C"/>
<path d="M31.1747 37.65C31.0775 37.6555 30.9886 37.6666 30.8914 37.6972C30.7692 37.7139 30.6442 37.7555 30.522 37.7777L30.4748 37.7833L30.3886 37.7889C30.3942 37.8111 30.3998 37.8361 30.3998 37.8583C30.3998 37.8861 30.3998 37.9055 30.3886 37.9277C30.3831 37.95 30.3664 37.9694 30.3525 37.9805C30.3359 38.0027 30.3164 38.0166 30.2942 38.0277C30.272 38.0388 30.247 38.0444 30.2248 38.0444C30.197 38.0444 30.1775 38.0444 30.1498 38.0333C30.122 38.0277 30.1025 38.0111 30.0803 37.9916C30.0525 37.9972 30.0275 38.0027 30.0053 38.0083C29.9775 38.0083 29.9581 38.0083 29.9359 38.0083C29.9081 38.0027 29.8831 37.9916 29.8609 37.9805C29.8331 37.9694 29.8136 37.9583 29.7914 37.9444C29.6998 37.9972 29.5998 38.05 29.5442 38.1416C29.5109 38.1833 29.5081 38.2333 29.5025 38.2861C29.497 38.35 29.5136 38.4138 29.5386 38.4722C29.5498 38.4888 29.5553 38.4138 29.5859 38.3972C29.6386 38.3555 29.697 38.3222 29.7609 38.3055C29.8136 38.2777 29.8081 38.3055 29.7886 38.3472C29.7831 38.3694 29.7525 38.4527 29.7942 38.4111C29.9748 38.3305 30.1748 38.3138 30.372 38.3C30.6553 38.2722 30.9386 38.2638 31.222 38.2638C31.4886 38.2694 31.7553 38.2694 32.0247 38.2805C32.1525 38.2861 32.2803 38.3138 32.4053 38.2916C32.4386 38.2861 32.4859 38.2805 32.5025 38.2638C32.4442 38.2305 32.3803 38.2305 32.3164 38.2222H31.8053C31.6609 38.2055 31.5164 38.2055 31.3831 38.1527C31.347 38.1361 31.3136 38.1055 31.2803 38.1416C31.2275 38.1583 31.1747 38.175 31.1192 38.175C31.022 38.1805 30.9331 38.1638 30.847 38.1277C30.9109 38.0416 30.9859 37.9666 31.0497 37.8861C30.997 37.875 30.9442 37.8638 30.8831 37.8527C30.9914 37.8 31.0831 37.725 31.1747 37.65Z" fill="#FEC50C"/>
<path d="M35.3363 38.5749C35.1447 38.6916 34.9947 38.4832 34.8336 38.4249C34.7169 38.4888 34.7058 38.6971 34.5975 38.7999C34.4697 38.9499 34.3086 38.7582 34.3197 38.6138C34.1641 38.7416 34.0836 39.0416 33.8391 38.9999C33.7225 38.9027 33.6308 38.6999 33.5391 38.9305C33.4641 39.0416 33.2669 39.2027 33.1641 39.0332C33.1308 38.8832 33.0586 38.7083 32.978 38.9416C32.9197 39.1138 32.7419 39.236 32.5669 39.161C32.4697 39.0805 32.6419 38.7916 32.5252 38.8138C32.3447 38.9305 32.2363 39.2305 31.9863 39.2082C31.8891 39.0971 32.0447 38.9082 31.9391 38.786C31.8113 38.9527 31.6725 39.186 31.4475 39.2082C31.3419 39.1221 31.453 38.8721 31.3836 38.8388C31.1586 38.9721 30.9197 39.2194 30.6363 39.1388C30.7475 38.7166 31.2086 38.5666 31.5975 38.536C32.2669 38.4555 32.9697 38.6055 33.6169 38.3638C33.7225 38.2999 33.9752 38.2082 33.8836 38.0638C33.803 37.9471 34.0919 37.9944 34.1197 37.8555C34.103 37.6832 34.253 37.7055 34.3975 37.6888C35.0502 37.661 35.6919 37.7944 36.3419 37.8221C36.3891 38.1388 36.0363 38.361 35.7586 38.2666C35.6252 38.2888 35.4225 37.9555 35.4586 38.1971C35.4336 38.3221 35.4558 38.4888 35.3363 38.5749ZM29.7947 37.9277C29.9447 38.0666 30.0502 37.8999 30.1891 37.8416C30.6586 37.6805 31.0752 37.3916 31.4836 37.1082C31.7308 36.9055 31.9419 36.6388 32.2752 36.5749C32.9225 36.3777 33.6058 36.4027 34.253 36.2221C34.7447 35.5499 35.5836 35.3082 36.2836 34.9194C36.4391 34.8721 36.503 34.7444 36.5502 34.5999C36.8169 34.1777 37.1808 33.8027 37.6141 33.5471C37.8169 33.436 38.0641 33.3721 38.2919 33.4249C38.2752 33.7027 38.1169 33.9444 37.928 34.136C38.0836 34.1305 38.2169 34.0332 38.378 34.0388C38.4308 34.3221 38.128 34.4721 37.9669 34.6471C38.0586 34.6694 38.4058 34.6944 38.2141 34.786C37.9725 34.9527 37.7002 35.0694 37.4752 35.261C37.678 35.2971 37.7058 35.3416 37.4975 35.4166C37.3863 35.4916 37.1669 35.5194 37.1447 35.6666C37.3002 35.7638 37.0752 35.8527 36.9836 35.886C36.8169 35.9221 36.6419 35.9971 36.8613 36.1277C36.7752 36.2555 36.6002 36.2832 36.4502 36.2666C36.4919 36.411 36.5558 36.5721 36.3752 36.636C35.9586 36.9527 35.4669 37.1805 34.9419 37.2332C35.6002 37.2805 36.2725 37.1638 36.8336 36.8055C36.9086 36.7194 37.2919 36.6249 37.0808 36.5499C36.978 36.5082 36.7613 36.4582 36.7447 36.3832C37.0502 36.1971 37.428 36.261 37.7558 36.1527C37.7669 36.0471 37.5086 36.0777 37.4141 36.0499C37.1836 36.0277 37.2002 35.9749 37.4197 35.9527C37.6975 35.8777 38.0141 35.861 38.2475 35.686C38.0558 35.5944 37.8141 35.6749 37.6113 35.6055C37.9586 35.4555 38.3641 35.4388 38.6752 35.211C38.8141 35.0555 38.4947 35.1055 38.403 35.1082C38.2113 35.1416 38.1252 35.0499 38.3391 34.9694C38.7086 34.6971 39.178 34.5194 39.4391 34.1249C39.503 34.0332 39.5836 33.7666 39.3863 33.8638C39.1308 33.9499 38.9002 34.2444 38.6058 34.1527C39.1891 33.7027 39.7391 33.1916 40.1336 32.5666C40.1558 32.386 39.8725 32.3694 39.7975 32.5082C39.4225 32.8666 39.0863 33.2944 38.6113 33.5194C39.0697 33.0749 39.4447 32.5582 39.7752 32.011C39.8447 31.8499 40.0363 31.6582 39.9363 31.4777C39.7697 31.3388 39.5613 31.4666 39.478 31.6332C39.1891 32.0138 38.9697 32.4555 38.5975 32.761C38.9225 32.136 39.2613 31.4721 39.2697 30.7582C39.2697 30.6082 39.2363 30.3944 39.0391 30.4221C38.878 30.4499 38.9169 30.6888 38.853 30.811C38.7086 31.3027 38.6391 31.8305 38.3447 32.2638C38.4086 31.8638 38.5252 31.4471 38.4419 31.0444C38.4002 30.8638 38.1113 30.9416 38.1475 31.1194C37.8002 32.8777 36.6197 34.4166 35.0752 35.3082C34.3697 35.7082 33.578 35.9666 32.778 36.0832C32.5641 36.1305 32.328 36.1055 32.1197 36.1749C31.6169 36.561 31.3169 37.1999 30.6808 37.4055C30.3975 37.5444 30.028 37.5777 29.8252 37.8388C29.8002 37.8471 29.7947 37.8888 29.7947 37.9277Z" fill="#FEC50C"/>
<path d="M31.692 36.1416C31.5948 36.3138 31.542 36.5055 31.4253 36.6611C31.0614 36.3305 30.5392 36.3416 30.0781 36.3194C29.6976 36.2972 29.2864 36.2666 28.992 35.9944C28.6809 35.7444 28.4309 35.4111 28.0892 35.2083C27.7726 35.1222 27.4587 35.0166 27.2087 34.8027C26.6698 34.3638 26.3587 33.7083 25.8309 33.2527C25.7281 33.15 25.6115 33.0777 25.5003 32.9916C25.3948 33.0194 25.442 33.2472 25.3087 33.1305C25.2392 33.0777 25.0587 33.0777 25.042 33.1472C25.2031 33.3611 25.3615 33.6027 25.3892 33.875C25.2781 33.8861 25.0837 33.8527 25.0309 33.8916C25.1753 34.1111 25.3615 34.3027 25.5753 34.4583C25.4726 34.475 25.2698 34.4638 25.2337 34.5055C25.4476 34.6777 25.6726 34.8527 25.9503 34.8944C26.0087 34.9694 25.8698 35.1138 25.9837 35.1777C26.0531 35.2055 26.2781 35.2527 26.1226 35.3277C26.017 35.3972 26.0587 35.5694 26.192 35.5638C26.2781 35.6055 26.4698 35.6166 26.4864 35.6916C26.4114 35.7666 26.1753 35.8638 26.3753 35.9333C26.5614 36.0388 26.7753 36.1055 26.9948 36.1138C26.8892 36.2055 26.7531 36.2583 26.642 36.3444C27.1392 36.6333 27.6892 36.825 28.2281 37.0111C28.442 37.0861 28.6614 37.15 28.8864 37.1916C28.2337 37.1555 27.6031 36.9611 27.0114 36.7C26.7003 36.5666 26.3976 36.4333 26.0809 36.3194C26.2198 36.25 26.3809 36.2277 26.5253 36.1694C26.2253 36.1111 25.9059 36.0888 25.6448 35.9277C25.6865 35.8583 25.8365 35.8527 25.9226 35.8166C26.0837 35.7805 26.1781 35.7305 25.9559 35.7194C25.7309 35.6611 25.4753 35.6861 25.2781 35.5472C25.2892 35.4666 25.4976 35.4944 25.5837 35.4611C25.6892 35.4444 25.8087 35.4277 25.8948 35.3555C25.5476 35.2111 25.092 35.3138 24.8198 35.0083C24.7559 34.8916 25.0115 34.9861 25.0865 34.9666C25.2726 34.9666 25.4726 35.025 25.6531 34.95C25.1448 34.725 24.6059 34.5222 24.2198 34.1111C24.1781 34.0472 24.0476 33.8638 24.1503 33.8444C24.4503 33.8805 24.6698 34.2138 24.9892 34.1611C25.0309 34.1027 24.8031 34.0111 24.742 33.925C24.2726 33.525 23.817 33.0861 23.492 32.5611C23.4698 32.3861 23.742 32.3583 23.817 32.4972C24.1753 32.8444 24.5003 33.2444 24.9448 33.4805C25.1059 33.5555 24.8531 33.3888 24.8226 33.3305C24.4115 32.85 24.0142 32.3472 23.7337 31.7805C23.6809 31.6777 23.5948 31.4972 23.7503 31.4388C23.9059 31.3638 24.0615 31.4666 24.1365 31.6C24.442 31.9861 24.6615 32.4388 25.0392 32.7555C24.7198 32.1305 24.3753 31.4722 24.367 30.7555C24.3726 30.6166 24.3837 30.4083 24.5698 30.4138C24.7309 30.3916 24.7031 30.5888 24.7559 30.6916C24.9115 31.2194 24.9809 31.7916 25.2948 32.2583C25.2253 31.8694 25.1226 31.4611 25.192 31.0666C25.2087 30.9388 25.3531 30.8944 25.4476 30.975C25.5281 31.1666 25.5448 31.3972 25.6142 31.6C26.0142 32.9777 26.917 34.1861 28.1003 35C29.067 35.6638 30.2226 36.0638 31.3976 36.1333C31.4781 36.1305 31.5864 36.1361 31.692 36.1416Z" fill="#FEC50C"/>
<path d="M30.1999 37.9638C30.2352 37.9638 30.2638 37.9352 30.2638 37.8999C30.2638 37.8647 30.2352 37.8361 30.1999 37.8361C30.1646 37.8361 30.136 37.8647 30.136 37.8999C30.136 37.9352 30.1646 37.9638 30.1999 37.9638Z" fill="#FEC50C"/>
<path d="M30.1948 37.9224C30.2101 37.9224 30.2225 37.9099 30.2225 37.8946C30.2225 37.8793 30.2101 37.8668 30.1948 37.8668C30.1794 37.8668 30.167 37.8793 30.167 37.8946C30.167 37.9099 30.1794 37.9224 30.1948 37.9224Z" fill="#FEC50C" stroke="#00AFCA" stroke-width="0.1905" stroke-miterlimit="2"/>
<path d="M6.15035 20.5888C6.15035 20.5888 5.8948 20.3749 5.80869 20.4832C5.6698 20.6582 6.24202 21.5249 6.24202 21.8305C6.24202 22.3332 5.90591 22.4666 5.4948 22.5416C5.21702 22.5832 4.76146 22.5138 4.76146 22.5138C4.84757 22.4027 4.90035 22.3638 5.0448 22.3582C4.88369 22.2777 4.72535 22.0971 4.72535 21.8194C4.72535 21.386 4.90035 21.211 4.90035 20.7249C4.90035 20.4582 4.68091 20.111 4.68091 20.111C5.0698 20.1471 5.26424 20.511 5.15591 20.7999C5.2198 20.811 5.27257 20.7944 5.32257 20.7471C5.35035 20.8277 5.30591 20.9194 5.24757 20.9971C5.2948 21.0249 5.33369 21.0082 5.40869 20.9916C5.40313 21.0721 5.35035 21.1638 5.23369 21.2416C5.58646 21.1499 5.80035 21.3971 5.80035 21.6527C5.80035 21.8444 5.66702 21.9832 5.53369 21.9832C5.49202 21.9832 5.42813 21.9666 5.3948 21.9416C5.36702 21.9944 5.38369 22.0638 5.41146 22.1166C5.31424 22.0888 5.25035 22.0305 5.2948 21.9138C5.2198 21.9082 5.16146 21.8805 5.1198 21.8332C5.16146 21.7805 5.22257 21.7527 5.2948 21.7527C5.24202 21.6416 5.30035 21.5777 5.39202 21.5277C5.39202 21.5277 5.33369 21.7527 5.47813 21.7527C5.54202 21.7527 5.60035 21.7305 5.60035 21.636C5.60035 21.5555 5.52535 21.4388 5.35869 21.4444C5.19202 21.4499 5.05313 21.561 5.05313 21.8305C5.05313 22.0777 5.25035 22.1999 5.51146 22.2055C5.74757 22.211 5.92813 22.0832 5.92813 21.8416C5.92813 21.5166 5.45869 20.7777 5.45869 20.4888C5.45869 20.2694 5.65035 20.1527 5.8448 20.1527C6.09202 20.1527 6.30035 20.3999 6.30035 20.3999L6.15035 20.5888Z" fill="#FEC50C"/>
<path d="M6.20619 26.4475C6.20619 26.9864 5.72007 27.2642 5.33952 27.2642C4.82563 27.2642 4.54785 26.9531 4.54785 26.5531C4.54785 26.3225 4.58952 26.1781 4.69785 25.9642C4.69785 25.9642 5.54785 24.2003 5.87841 23.517C5.92007 23.4309 5.93119 23.3364 5.93119 23.192C5.93119 22.9725 5.7173 22.792 5.4923 22.7864C5.28952 22.7809 5.06452 22.9781 5.06452 23.1975C5.06452 23.4642 5.20341 23.5864 5.34785 23.5864C5.52285 23.5864 5.59507 23.5114 5.59507 23.3892C5.59507 23.3031 5.55341 23.267 5.4923 23.267C5.3423 23.267 5.38674 23.4698 5.38674 23.4698C5.31174 23.4531 5.24785 23.3781 5.28396 23.2836C5.22563 23.2725 5.17841 23.242 5.13396 23.1975C5.17563 23.1614 5.22007 23.1281 5.28396 23.117C5.24785 22.9948 5.29507 22.942 5.40063 22.9142C5.37841 22.9559 5.37841 23.0003 5.38396 23.042C5.54507 22.9948 5.79507 23.0698 5.79507 23.3475C5.79507 23.6253 5.60341 23.8559 5.24507 23.8031C5.33119 23.8448 5.37285 23.9253 5.38396 24.0225C5.32007 23.9948 5.24507 23.9948 5.24507 23.9948C5.28674 24.0698 5.34785 24.1336 5.3423 24.2781C5.27285 24.2448 5.21452 24.192 5.12841 24.2253C5.26174 24.4864 5.09507 24.8559 4.67841 24.942C4.83396 24.7614 4.90896 24.567 4.90896 24.3753C4.90896 23.7503 4.73396 23.642 4.73396 23.2059C4.73396 23.0253 4.83118 22.8253 5.01174 22.692V22.6975C4.88952 22.6642 4.80896 22.6059 4.76452 22.5225C5.04785 22.442 5.45341 22.442 5.67285 22.5336C5.92285 22.5614 6.10063 22.7586 6.15341 22.8531C6.20619 22.9503 6.30896 23.3086 6.15341 23.6281C5.98674 23.9753 5.19785 25.6475 4.95618 26.1725C4.90341 26.2836 4.87007 26.4031 4.87007 26.5309C4.87007 26.8503 5.16452 26.9642 5.32841 26.9642C5.52563 26.9642 5.73396 26.8086 5.73396 26.6225C5.73396 26.5003 5.67007 26.4309 5.57285 26.4309C5.34785 26.4309 5.35896 26.6225 5.40618 26.7475C5.2673 26.6836 5.18118 26.5725 5.20896 26.4531C5.12841 26.442 5.05341 26.4059 4.98396 26.3253C5.03674 26.2559 5.10618 26.2031 5.20896 26.2031C5.1673 26.017 5.28952 25.942 5.40618 25.8975C5.37007 26.0309 5.3423 26.192 5.57285 26.192C5.74507 26.192 5.87285 26.2198 5.95341 26.3309C5.95896 26.1864 5.97007 25.6086 5.97007 25.6086C5.98119 25.3948 5.68118 25.4003 5.48952 25.4642C5.55896 25.2142 5.70896 25.0781 6.05063 25.117C5.97007 25.0836 5.87841 25.0059 5.87841 24.8559C5.87841 24.6531 6.04507 24.4281 6.15063 24.3642L6.20619 26.4475Z" fill="#FEC50C"/>
<path d="M6.20619 28.0725C6.20619 27.5336 5.72007 27.2558 5.33952 27.2558C4.82563 27.2558 4.54785 27.5669 4.54785 27.9669C4.54785 28.1975 4.58952 28.3419 4.69785 28.5558C4.69785 28.5558 5.54785 30.3197 5.87841 31.003C5.92007 31.0891 5.93119 31.1836 5.93119 31.328C5.93119 31.5475 5.7173 31.728 5.4923 31.7336C5.28952 31.7391 5.06452 31.5419 5.06452 31.3225C5.06452 31.0558 5.20341 30.9336 5.34785 30.9336C5.52285 30.9336 5.59507 31.0086 5.59507 31.1308C5.59507 31.2169 5.55341 31.253 5.4923 31.253C5.3423 31.253 5.38674 31.0502 5.38674 31.0502C5.31174 31.0669 5.24785 31.1419 5.28396 31.2363C5.22563 31.2475 5.17841 31.278 5.13396 31.3225C5.17563 31.3586 5.22007 31.3919 5.28396 31.403C5.24785 31.5197 5.29507 31.578 5.39507 31.6002C5.37285 31.5586 5.37285 31.5141 5.37841 31.4725C5.53952 31.5197 5.78952 31.4447 5.78952 31.1669C5.78952 30.8891 5.59785 30.6586 5.23952 30.7113C5.32563 30.6697 5.3673 30.5891 5.37841 30.4919C5.31452 30.5197 5.23952 30.5197 5.23952 30.5197C5.28119 30.4447 5.3423 30.3808 5.33674 30.2363C5.2673 30.2697 5.20896 30.3225 5.12285 30.2891C5.25619 30.028 5.08952 29.6586 4.67285 29.5725C4.82841 29.753 4.90341 29.9475 4.90341 30.1391C4.90341 30.7641 4.72841 30.8725 4.72841 31.3086C4.72841 31.4891 4.82563 31.6891 5.00618 31.8225V31.8169C4.88396 31.8502 4.80341 31.9086 4.75896 31.9919C5.0423 32.0725 5.44785 32.0725 5.6673 31.9808C5.9173 31.953 6.09507 31.7558 6.14785 31.6613C6.20063 31.5641 6.30341 31.2058 6.14785 30.8863C5.98119 30.5391 5.1923 28.8669 4.95063 28.3419C4.89785 28.2308 4.86452 28.1114 4.86452 27.9836C4.86452 27.6641 5.15896 27.5502 5.32285 27.5502C5.52007 27.5502 5.72841 27.7058 5.72841 27.8919C5.72841 28.0141 5.66452 28.0836 5.5673 28.0836C5.3423 28.0836 5.35341 27.8919 5.40063 27.7669C5.26174 27.8308 5.17563 27.9419 5.20341 28.0614C5.12285 28.0725 5.04785 28.1086 4.97841 28.1891C5.03118 28.2586 5.10063 28.3114 5.20341 28.3114C5.16174 28.4975 5.28396 28.5725 5.40063 28.6169C5.36452 28.4836 5.33674 28.3225 5.5673 28.3225C5.73952 28.3225 5.8673 28.2947 5.94785 28.1836C5.95341 28.328 5.96452 28.9058 5.96452 28.9058C5.97563 29.1197 5.67563 29.1141 5.48396 29.0502C5.55341 29.3002 5.70341 29.4363 6.04507 29.3975C5.96452 29.4308 5.87285 29.5086 5.87285 29.6586C5.87285 29.8613 6.03952 30.0863 6.14507 30.1502L6.20619 28.0725Z" fill="#FEC50C"/>
<path d="M6.14957 20.589C6.14957 20.589 6.40513 20.3752 6.49124 20.4835C6.63013 20.6585 6.0579 21.5252 6.0579 21.8307C6.0579 22.3335 6.39402 22.4668 6.80513 22.5418C7.0829 22.589 7.5329 22.5196 7.5329 22.5196C7.44679 22.4085 7.39402 22.3696 7.24957 22.364C7.41068 22.2835 7.56902 22.1029 7.56902 21.8252C7.56902 21.3918 7.39402 21.2168 7.39402 20.7307C7.39402 20.464 7.61346 20.1168 7.61346 20.1168C7.22457 20.1529 7.03013 20.5168 7.13846 20.8057C7.07457 20.8168 7.02179 20.8002 6.97179 20.7529C6.94957 20.8335 6.99402 20.9252 7.0579 21.0029C7.01068 21.0307 6.97179 21.014 6.89679 20.9974C6.90235 21.0779 6.95513 21.1696 7.07179 21.2474C6.71902 21.1557 6.50513 21.4029 6.50513 21.6585C6.50513 21.8502 6.63846 21.989 6.77179 21.989C6.81346 21.989 6.87735 21.9724 6.91068 21.9474C6.93846 22.0002 6.92179 22.0696 6.89402 22.1224C6.99124 22.0946 7.05513 22.0363 7.01068 21.9196C7.08568 21.914 7.14402 21.8863 7.18568 21.839C7.14402 21.7863 7.0829 21.7585 7.01068 21.7585C7.06346 21.6474 7.00513 21.5835 6.91346 21.5335C6.91346 21.5335 6.97179 21.7585 6.82735 21.7585C6.76346 21.7585 6.70513 21.7363 6.70513 21.6418C6.70513 21.5613 6.78013 21.4446 6.94679 21.4502C7.11346 21.4557 7.25235 21.5668 7.25235 21.8363C7.25235 22.0835 7.05513 22.2057 6.79402 22.2113C6.5579 22.2168 6.37735 22.089 6.37735 21.8474C6.37735 21.5224 6.84679 20.7835 6.84679 20.4946C6.84679 20.2752 6.65513 20.1585 6.46068 20.1585C6.21346 20.1585 6.00513 20.4057 6.00513 20.4057L6.14957 20.589Z" fill="#FEC50C"/>
<path d="M6.09757 26.447C6.09757 26.9859 6.58368 27.2637 6.96424 27.2637C7.47813 27.2637 7.7559 26.9526 7.7559 26.5526C7.7559 26.322 7.71424 26.1776 7.6059 25.9637C7.6059 25.9637 6.7559 24.1998 6.42535 23.5165C6.38368 23.4304 6.37257 23.3359 6.37257 23.1915C6.37257 22.972 6.58646 22.7915 6.81146 22.7859C7.01424 22.7804 7.23924 22.9776 7.23924 23.197C7.23924 23.4637 7.10035 23.5859 6.9559 23.5859C6.7809 23.5859 6.70868 23.5109 6.70868 23.3887C6.70868 23.3026 6.75035 23.2665 6.81146 23.2665C6.96146 23.2665 6.91701 23.4693 6.91701 23.4693C6.99201 23.4526 7.0559 23.3776 7.01979 23.2832C7.07813 23.272 7.12535 23.2415 7.16979 23.197C7.12813 23.1609 7.08368 23.1276 7.01979 23.1165C7.0559 22.9998 7.00868 22.9415 6.90868 22.9193C6.9309 22.9609 6.9309 23.0054 6.92535 23.047C6.76424 22.9998 6.51424 23.0748 6.51424 23.3526C6.51424 23.6304 6.7059 23.8609 7.06424 23.8082C6.97813 23.8498 6.93646 23.9304 6.92535 24.0276C6.98924 23.9998 7.06424 23.9998 7.06424 23.9998C7.02257 24.0748 6.96146 24.1387 6.96701 24.2832C7.03646 24.2498 7.09479 24.197 7.1809 24.2304C7.04757 24.4915 7.21424 24.8609 7.6309 24.947C7.47535 24.7665 7.40035 24.572 7.40035 24.3804C7.40035 23.7554 7.57535 23.647 7.57535 23.2109C7.57535 23.0304 7.47813 22.8304 7.29757 22.697V22.7026C7.41979 22.6693 7.50035 22.6109 7.54479 22.5276C7.26146 22.447 6.8559 22.447 6.63646 22.5387C6.38646 22.5665 6.20868 22.7637 6.1559 22.8582C6.10313 22.9554 6.00035 23.3137 6.1559 23.6332C6.32257 23.9804 7.11146 25.6526 7.35313 26.1776C7.4059 26.2887 7.43924 26.4082 7.43924 26.5359C7.43924 26.8554 7.14479 26.9693 6.9809 26.9693C6.78368 26.9693 6.57535 26.8137 6.57535 26.6276C6.57535 26.5054 6.63924 26.4359 6.73646 26.4359C6.96146 26.4359 6.95035 26.6276 6.90313 26.7526C7.04201 26.6887 7.12813 26.5776 7.10035 26.4582C7.1809 26.447 7.2559 26.4109 7.32535 26.3304C7.27257 26.2609 7.20313 26.2082 7.10035 26.2082C7.14201 26.022 7.01979 25.947 6.90313 25.9026C6.93924 26.0359 6.96701 26.197 6.73646 26.197C6.56424 26.197 6.43646 26.2248 6.3559 26.3359C6.35035 26.1915 6.33924 25.6137 6.33924 25.6137C6.32813 25.3998 6.62813 25.4054 6.81979 25.4693C6.75035 25.2193 6.60035 25.0832 6.25868 25.122C6.33924 25.0887 6.4309 25.0109 6.4309 24.8609C6.4309 24.6582 6.26424 24.4332 6.15868 24.3693L6.09757 26.447Z" fill="#FEC50C"/>
<path d="M6.09757 28.0725C6.09757 27.5336 6.58368 27.2558 6.96424 27.2558C7.47813 27.2558 7.7559 27.5669 7.7559 27.9669C7.7559 28.1975 7.71424 28.3419 7.6059 28.5558C7.6059 28.5558 6.7559 30.3197 6.42535 31.003C6.38368 31.0891 6.37257 31.1836 6.37257 31.328C6.37257 31.5475 6.58646 31.728 6.81146 31.7336C7.01424 31.7391 7.23924 31.5419 7.23924 31.3225C7.23924 31.0558 7.10035 30.9336 6.9559 30.9336C6.7809 30.9336 6.70868 31.0086 6.70868 31.1308C6.70868 31.2169 6.75035 31.253 6.81146 31.253C6.96146 31.253 6.91701 31.0502 6.91701 31.0502C6.99201 31.0669 7.0559 31.1419 7.01979 31.2363C7.07813 31.2475 7.12535 31.278 7.16979 31.3225C7.12813 31.3586 7.08368 31.3919 7.01979 31.403C7.0559 31.5197 7.00868 31.578 6.90868 31.6002C6.9309 31.5586 6.9309 31.5141 6.92535 31.4725C6.76424 31.5197 6.51424 31.4447 6.51424 31.1669C6.51424 30.8891 6.7059 30.6586 7.06424 30.7113C6.97813 30.6697 6.93646 30.5891 6.92535 30.4919C6.98924 30.5197 7.06424 30.5197 7.06424 30.5197C7.02257 30.4447 6.96146 30.3808 6.96701 30.2363C7.03646 30.2697 7.09479 30.3225 7.1809 30.2891C7.04757 30.028 7.21424 29.6586 7.6309 29.5725C7.47535 29.753 7.40035 29.9475 7.40035 30.1391C7.40035 30.7641 7.57535 30.8725 7.57535 31.3086C7.57535 31.4891 7.47813 31.6891 7.29757 31.8225V31.8169C7.41979 31.8502 7.50035 31.9086 7.54479 31.9919C7.26146 32.0725 6.8559 32.0725 6.63646 31.9808C6.38646 31.953 6.20868 31.7558 6.1559 31.6613C6.10313 31.5641 6.00035 31.2058 6.1559 30.8863C6.32257 30.5391 7.11146 28.8669 7.35313 28.3419C7.4059 28.2308 7.43924 28.1114 7.43924 27.9836C7.43924 27.6641 7.14479 27.5502 6.9809 27.5502C6.78368 27.5502 6.57535 27.7058 6.57535 27.8919C6.57535 28.0141 6.63924 28.0836 6.73646 28.0836C6.96146 28.0836 6.95035 27.8919 6.90313 27.7669C7.04201 27.8308 7.12813 27.9419 7.10035 28.0614C7.1809 28.0725 7.2559 28.1086 7.32535 28.1891C7.27257 28.2586 7.20313 28.3114 7.10035 28.3114C7.14201 28.4975 7.01979 28.5725 6.90313 28.6169C6.93924 28.4836 6.96701 28.3225 6.73646 28.3225C6.56424 28.3225 6.43646 28.2947 6.3559 28.1836C6.35035 28.328 6.33924 28.9058 6.33924 28.9058C6.32813 29.1197 6.62813 29.1141 6.81979 29.0502C6.75035 29.3002 6.60035 29.4363 6.25868 29.3975C6.33924 29.4308 6.4309 29.5086 6.4309 29.6586C6.4309 29.8613 6.26424 30.0863 6.15868 30.1502L6.09757 28.0725Z" fill="#FEC50C"/>
<path d="M6.14992 43.4111C6.14992 43.4111 5.89437 43.625 5.80826 43.5166C5.66937 43.3416 6.24159 42.475 6.24159 42.1694C6.24159 41.6666 5.90548 41.5333 5.49437 41.4583C5.21659 41.4111 4.76659 41.4805 4.76659 41.4805C4.8527 41.5916 4.90548 41.6305 5.04992 41.6361C4.88881 41.7166 4.73048 41.8972 4.73048 42.175C4.73048 42.6083 4.90548 42.7833 4.90548 43.2694C4.90548 43.5361 4.68604 43.8833 4.68604 43.8833C5.07492 43.8472 5.26937 43.4833 5.16104 43.1944C5.22492 43.1833 5.2777 43.2 5.3277 43.2472C5.35548 43.1666 5.31104 43.075 5.2527 42.9972C5.29992 42.9694 5.33881 42.9861 5.41381 43.0027C5.40826 42.9222 5.35548 42.8305 5.23881 42.7527C5.59159 42.8444 5.80548 42.5972 5.80548 42.3416C5.80548 42.15 5.67215 42.0111 5.53881 42.0111C5.49715 42.0111 5.43326 42.0277 5.39992 42.0527C5.37215 42 5.38881 41.9305 5.41659 41.8777C5.31937 41.9055 5.25548 41.9638 5.29992 42.0805C5.22492 42.0861 5.16659 42.1138 5.12492 42.1611C5.16659 42.2138 5.2277 42.2416 5.29992 42.2416C5.24715 42.3527 5.30548 42.4166 5.39715 42.4666C5.39715 42.4666 5.33881 42.2416 5.48326 42.2416C5.54715 42.2416 5.60548 42.2638 5.60548 42.3583C5.60548 42.4388 5.53048 42.5555 5.36381 42.55C5.19715 42.5444 5.05826 42.4333 5.05826 42.1638C5.05826 41.9166 5.25548 41.7944 5.51659 41.7888C5.7527 41.7833 5.93326 41.9111 5.93326 42.1527C5.93326 42.4777 5.46381 43.2166 5.46381 43.5055C5.46381 43.725 5.65548 43.8416 5.84992 43.8416C6.09715 43.8416 6.30548 43.5944 6.30548 43.5944L6.14992 43.4111Z" fill="#FEC50C"/>
<path d="M6.20619 37.5527C6.20619 37.0138 5.72007 36.736 5.33952 36.736C4.82563 36.736 4.54785 37.0471 4.54785 37.4471C4.54785 37.6777 4.58952 37.8221 4.69785 38.036C4.69785 38.036 5.54785 39.7999 5.87841 40.4832C5.92007 40.5693 5.93119 40.6638 5.93119 40.8082C5.93119 41.0277 5.7173 41.2082 5.4923 41.2138C5.28952 41.2193 5.06452 41.0221 5.06452 40.8027C5.06452 40.536 5.20341 40.4138 5.34785 40.4138C5.52285 40.4138 5.59507 40.4888 5.59507 40.611C5.59507 40.6971 5.55341 40.7332 5.4923 40.7332C5.3423 40.7332 5.38674 40.5305 5.38674 40.5305C5.31174 40.5471 5.24785 40.6221 5.28396 40.7166C5.22563 40.7277 5.17841 40.7582 5.13396 40.8027C5.17563 40.8388 5.22007 40.8721 5.28396 40.8832C5.24785 40.9999 5.29507 41.0582 5.39507 41.0805C5.37285 41.0388 5.37285 40.9943 5.37841 40.9527C5.53952 40.9999 5.78952 40.9249 5.78952 40.6471C5.78952 40.3693 5.59785 40.1388 5.23952 40.1916C5.32563 40.1499 5.3673 40.0693 5.37841 39.9721C5.31452 39.9999 5.23952 39.9999 5.23952 39.9999C5.28119 39.9249 5.3423 39.861 5.33674 39.7166C5.2673 39.7499 5.20896 39.8027 5.12285 39.7694C5.25619 39.5082 5.08952 39.1388 4.67285 39.0527C4.82841 39.2332 4.90341 39.4277 4.90341 39.6194C4.90341 40.2443 4.72841 40.3527 4.72841 40.7888C4.72841 40.9693 4.82563 41.1693 5.00618 41.3027V41.2971C4.88396 41.3305 4.80341 41.3888 4.75896 41.4721C5.0423 41.5527 5.44785 41.5527 5.6673 41.461C5.9173 41.4332 6.09507 41.236 6.14785 41.1416C6.20063 41.0443 6.30341 40.686 6.14785 40.3666C5.98119 40.0194 5.1923 38.3471 4.95063 37.8221C4.89785 37.711 4.86452 37.5916 4.86452 37.4638C4.86452 37.1444 5.15896 37.0305 5.32285 37.0305C5.52007 37.0305 5.72841 37.186 5.72841 37.3721C5.72841 37.4944 5.66452 37.5638 5.5673 37.5638C5.3423 37.5638 5.35341 37.3721 5.40063 37.2471C5.26174 37.311 5.17563 37.4221 5.20341 37.5416C5.12285 37.5527 5.04785 37.5888 4.97841 37.6694C5.03118 37.7388 5.10063 37.7916 5.20341 37.7916C5.16174 37.9777 5.28396 38.0527 5.40063 38.0971C5.36452 37.9638 5.33674 37.8027 5.5673 37.8027C5.73952 37.8027 5.8673 37.7749 5.94785 37.6638C5.95341 37.8082 5.96452 38.386 5.96452 38.386C5.97563 38.5999 5.67563 38.5944 5.48396 38.5305C5.55341 38.7805 5.70341 38.9166 6.04507 38.8777C5.96452 38.911 5.87285 38.9888 5.87285 39.1388C5.87285 39.3416 6.03952 39.5666 6.14507 39.6305L6.20619 37.5527Z" fill="#FEC50C"/>
<path d="M6.20619 35.9279C6.20619 36.4668 5.72007 36.7446 5.33952 36.7446C4.82563 36.7446 4.54785 36.4335 4.54785 36.0335C4.54785 35.8029 4.58952 35.6585 4.69785 35.4446C4.69785 35.4446 5.54785 33.6807 5.87841 32.9974C5.92007 32.9113 5.93119 32.8168 5.93119 32.6724C5.93119 32.4529 5.7173 32.2724 5.4923 32.2668C5.28952 32.2613 5.06452 32.4585 5.06452 32.6779C5.06452 32.9446 5.20341 33.0668 5.34785 33.0668C5.52285 33.0668 5.59507 32.9918 5.59507 32.8696C5.59507 32.7835 5.55341 32.7474 5.4923 32.7474C5.3423 32.7474 5.38674 32.9502 5.38674 32.9502C5.31174 32.9335 5.24785 32.8585 5.28396 32.7641C5.22563 32.7529 5.17841 32.7224 5.13396 32.6779C5.17563 32.6418 5.22007 32.6085 5.28396 32.5974C5.24785 32.4807 5.29507 32.4224 5.39507 32.4002C5.37285 32.4418 5.37285 32.4863 5.37841 32.5279C5.53952 32.4807 5.78952 32.5557 5.78952 32.8335C5.78952 33.1113 5.59785 33.3418 5.23952 33.2891C5.32563 33.3307 5.3673 33.4113 5.37841 33.5085C5.31452 33.4807 5.23952 33.4807 5.23952 33.4807C5.28119 33.5557 5.3423 33.6196 5.33674 33.7641C5.2673 33.7307 5.20896 33.6779 5.12285 33.7113C5.25619 33.9724 5.08952 34.3418 4.67285 34.4279C4.82841 34.2474 4.90341 34.0529 4.90341 33.8613C4.90341 33.2363 4.72841 33.1279 4.72841 32.6918C4.72841 32.5113 4.82563 32.3113 5.00618 32.1779V32.1835C4.88396 32.1502 4.80341 32.0918 4.75896 32.0085C5.0423 31.9279 5.44785 31.9279 5.6673 32.0196C5.9173 32.0474 6.09507 32.2446 6.14785 32.3391C6.20063 32.4363 6.30341 32.7946 6.14785 33.1141C5.98119 33.4613 5.1923 35.1335 4.95063 35.6585C4.89785 35.7696 4.86452 35.889 4.86452 36.0168C4.86452 36.3363 5.15896 36.4502 5.32285 36.4502C5.52007 36.4502 5.72841 36.2946 5.72841 36.1085C5.72841 35.9863 5.66452 35.9168 5.5673 35.9168C5.3423 35.9168 5.35341 36.1085 5.40063 36.2335C5.26174 36.1696 5.17563 36.0585 5.20341 35.939C5.12285 35.9279 5.04785 35.8918 4.97841 35.8113C5.03118 35.7418 5.10063 35.689 5.20341 35.689C5.16174 35.5029 5.28396 35.4279 5.40063 35.3835C5.36452 35.5168 5.33674 35.6779 5.5673 35.6779C5.73952 35.6779 5.8673 35.7057 5.94785 35.8168C5.95341 35.6724 5.96452 35.0946 5.96452 35.0946C5.97563 34.8807 5.67563 34.8863 5.48396 34.9502C5.55341 34.7002 5.70341 34.564 6.04507 34.6029C5.96452 34.5696 5.87285 34.4918 5.87285 34.3418C5.87285 34.139 6.03952 33.914 6.14507 33.8502L6.20619 35.9279Z" fill="#FEC50C"/>
<path d="M6.15043 43.4111C6.15043 43.4111 6.40598 43.625 6.4921 43.5166C6.63098 43.3416 6.05876 42.475 6.05876 42.1694C6.05876 41.6666 6.39487 41.5333 6.80598 41.4583C7.08376 41.4111 7.53376 41.4805 7.53376 41.4805C7.44765 41.5916 7.39487 41.6305 7.25043 41.6361C7.41154 41.7166 7.56987 41.8972 7.56987 42.175C7.56987 42.6083 7.39487 42.7833 7.39487 43.2694C7.39487 43.5361 7.61432 43.8833 7.61432 43.8833C7.22543 43.8472 7.03098 43.4833 7.13932 43.1944C7.07543 43.1833 7.02265 43.2 6.97265 43.2472C6.94487 43.1666 6.98932 43.075 7.04765 42.9972C7.00043 42.9694 6.96154 42.9861 6.88654 43.0027C6.89209 42.9222 6.94487 42.8305 7.06154 42.7527C6.70876 42.8444 6.49487 42.5972 6.49487 42.3416C6.49487 42.15 6.62821 42.0111 6.76154 42.0111C6.80321 42.0111 6.86709 42.0277 6.90043 42.0527C6.92821 42 6.91154 41.9305 6.88376 41.8777C6.98098 41.9055 7.04487 41.9638 7.00043 42.0805C7.07543 42.0861 7.13376 42.1138 7.17543 42.1611C7.13376 42.2138 7.07265 42.2416 7.00043 42.2416C7.05321 42.3527 6.99487 42.4166 6.90321 42.4666C6.90321 42.4666 6.96154 42.2416 6.81709 42.2416C6.75321 42.2416 6.69487 42.2638 6.69487 42.3583C6.69487 42.4388 6.76987 42.5555 6.93654 42.55C7.10321 42.5444 7.24209 42.4333 7.24209 42.1638C7.24209 41.9166 7.04487 41.7944 6.78376 41.7888C6.54765 41.7833 6.3671 41.9111 6.3671 42.1527C6.3671 42.4777 6.83654 43.2166 6.83654 43.5055C6.83654 43.725 6.64487 43.8416 6.45043 43.8416C6.20321 43.8416 5.99487 43.5944 5.99487 43.5944L6.15043 43.4111Z" fill="#FEC50C"/>
<path d="M6.09757 37.5527C6.09757 37.0138 6.58368 36.736 6.96424 36.736C7.47813 36.736 7.7559 37.0471 7.7559 37.4471C7.7559 37.6777 7.71424 37.8221 7.6059 38.036C7.6059 38.036 6.7559 39.7999 6.42535 40.4832C6.38368 40.5693 6.37257 40.6638 6.37257 40.8082C6.37257 41.0277 6.58646 41.2082 6.81146 41.2138C7.01424 41.2193 7.23924 41.0221 7.23924 40.8027C7.23924 40.536 7.10035 40.4138 6.9559 40.4138C6.7809 40.4138 6.70868 40.4888 6.70868 40.611C6.70868 40.6971 6.75035 40.7332 6.81146 40.7332C6.96146 40.7332 6.91701 40.5305 6.91701 40.5305C6.99201 40.5471 7.0559 40.6221 7.01979 40.7166C7.07813 40.7277 7.12535 40.7582 7.16979 40.8027C7.12813 40.8388 7.08368 40.8721 7.01979 40.8832C7.0559 40.9999 7.00868 41.0582 6.90868 41.0805C6.9309 41.0388 6.9309 40.9943 6.92535 40.9527C6.76424 40.9999 6.51424 40.9249 6.51424 40.6471C6.51424 40.3693 6.7059 40.1388 7.06424 40.1916C6.97813 40.1499 6.93646 40.0693 6.92535 39.9721C6.98924 39.9999 7.06424 39.9999 7.06424 39.9999C7.02257 39.9249 6.96146 39.861 6.96701 39.7166C7.03646 39.7499 7.09479 39.8027 7.1809 39.7694C7.04757 39.5082 7.21424 39.1388 7.6309 39.0527C7.47535 39.2332 7.40035 39.4277 7.40035 39.6194C7.40035 40.2443 7.57535 40.3527 7.57535 40.7888C7.57535 40.9693 7.47813 41.1693 7.29757 41.3027V41.2971C7.41979 41.3305 7.50035 41.3888 7.54479 41.4721C7.26146 41.5527 6.8559 41.5527 6.63646 41.461C6.38646 41.4332 6.20868 41.236 6.1559 41.1416C6.10313 41.0443 6.00035 40.686 6.1559 40.3666C6.32257 40.0194 7.11146 38.3471 7.35313 37.8221C7.4059 37.711 7.43924 37.5916 7.43924 37.4638C7.43924 37.1444 7.14479 37.0305 6.9809 37.0305C6.78368 37.0305 6.57535 37.186 6.57535 37.3721C6.57535 37.4944 6.63924 37.5638 6.73646 37.5638C6.96146 37.5638 6.95035 37.3721 6.90313 37.2471C7.04201 37.311 7.12813 37.4221 7.10035 37.5416C7.1809 37.5527 7.2559 37.5888 7.32535 37.6694C7.27257 37.7388 7.20313 37.7916 7.10035 37.7916C7.14201 37.9777 7.01979 38.0527 6.90313 38.0971C6.93924 37.9638 6.96701 37.8027 6.73646 37.8027C6.56424 37.8027 6.43646 37.7749 6.3559 37.6638C6.35035 37.8082 6.33924 38.386 6.33924 38.386C6.32813 38.5999 6.62813 38.5944 6.81979 38.5305C6.75035 38.7805 6.60035 38.9166 6.25868 38.8777C6.33924 38.911 6.4309 38.9888 6.4309 39.1388C6.4309 39.3416 6.26424 39.5666 6.15868 39.6305L6.09757 37.5527Z" fill="#FEC50C"/>
<path d="M6.09757 35.9279C6.09757 36.4668 6.58368 36.7446 6.96424 36.7446C7.47813 36.7446 7.7559 36.4335 7.7559 36.0335C7.7559 35.8029 7.71424 35.6585 7.6059 35.4446C7.6059 35.4446 6.7559 33.6807 6.42535 32.9974C6.38368 32.9113 6.37257 32.8168 6.37257 32.6724C6.37257 32.4529 6.58646 32.2724 6.81146 32.2668C7.01424 32.2613 7.23924 32.4585 7.23924 32.6779C7.23924 32.9446 7.10035 33.0668 6.9559 33.0668C6.7809 33.0668 6.70868 32.9918 6.70868 32.8696C6.70868 32.7835 6.75035 32.7474 6.81146 32.7474C6.96146 32.7474 6.91701 32.9502 6.91701 32.9502C6.99201 32.9335 7.0559 32.8585 7.01979 32.7641C7.07813 32.7529 7.12535 32.7224 7.16979 32.6779C7.12813 32.6418 7.08368 32.6085 7.01979 32.5974C7.0559 32.4807 7.00868 32.4224 6.90868 32.4002C6.9309 32.4418 6.9309 32.4863 6.92535 32.5279C6.76424 32.4807 6.51424 32.5557 6.51424 32.8335C6.51424 33.1113 6.7059 33.3418 7.06424 33.2891C6.97813 33.3307 6.93646 33.4113 6.92535 33.5085C6.98924 33.4807 7.06424 33.4807 7.06424 33.4807C7.02257 33.5557 6.96146 33.6196 6.96701 33.7641C7.03646 33.7307 7.09479 33.6779 7.1809 33.7113C7.04757 33.9724 7.21424 34.3418 7.6309 34.4279C7.47535 34.2474 7.40035 34.0529 7.40035 33.8613C7.40035 33.2363 7.57535 33.1279 7.57535 32.6918C7.57535 32.5113 7.47813 32.3113 7.29757 32.1779V32.1835C7.41979 32.1502 7.50035 32.0918 7.54479 32.0085C7.26146 31.9279 6.8559 31.9279 6.63646 32.0196C6.38646 32.0474 6.20868 32.2446 6.1559 32.3391C6.10313 32.4363 6.00035 32.7946 6.1559 33.1141C6.32257 33.4613 7.11146 35.1335 7.35313 35.6585C7.4059 35.7696 7.43924 35.889 7.43924 36.0168C7.43924 36.3363 7.14479 36.4502 6.9809 36.4502C6.78368 36.4502 6.57535 36.2946 6.57535 36.1085C6.57535 35.9863 6.63924 35.9168 6.73646 35.9168C6.96146 35.9168 6.95035 36.1085 6.90313 36.2335C7.04201 36.1696 7.12813 36.0585 7.10035 35.939C7.1809 35.9279 7.2559 35.8918 7.32535 35.8113C7.27257 35.7418 7.20313 35.689 7.10035 35.689C7.14201 35.5029 7.01979 35.4279 6.90313 35.3835C6.93924 35.5168 6.96701 35.6779 6.73646 35.6779C6.56424 35.6779 6.43646 35.7057 6.3559 35.8168C6.35035 35.6724 6.33924 35.0946 6.33924 35.0946C6.32813 34.8807 6.62813 34.8863 6.81979 34.9502C6.75035 34.7002 6.60035 34.564 6.25868 34.6029C6.33924 34.5696 6.4309 34.4918 6.4309 34.3418C6.4309 34.139 6.26424 33.914 6.15868 33.8502L6.09757 35.9279Z" fill="#FEC50C"/>
</g>
<defs>
<clipPath id="clip0_1103_54">
<rect width="53.3333" height="30" fill="white" transform="translate(3 17)"/>
</clipPath>
</defs>
</svg>
