<svg width="60" height="60" viewBox="0 0 60 60" fill="none" xmlns="http://www.w3.org/2000/svg">
<path d="M19.4309 19.8305C17.0935 22.2565 15.6625 25.4133 15.3785 28.7701C15.0944 32.127 15.9747 35.4793 17.8712 38.2636C19.7678 41.0479 22.565 43.0944 25.7928 44.0591C29.0205 45.0239 32.482 44.848 35.5954 43.5612C35.8062 42.1862 35.3442 40.8662 35.1554 40.4042C34.7337 39.3775 33.3441 37.623 31.0249 35.1902C30.4052 34.5393 30.4456 34.0388 30.6674 32.5557L30.6912 32.3888C30.8416 31.3732 31.0946 30.7718 34.5137 30.2292C36.2517 29.9542 36.7082 30.6472 37.3407 31.6097L37.5534 31.925C38.1547 32.805 38.6002 33.0067 39.2731 33.311C39.5756 33.4485 39.9514 33.6227 40.4556 33.9068C41.6509 34.5907 41.6509 35.3625 41.6509 37.0528V37.2453C41.6509 37.9622 41.5812 38.5928 41.4712 39.141C42.8781 37.3753 43.8584 35.3088 44.336 33.1023C44.8135 30.8958 44.7754 28.6089 44.2246 26.4195C43.6737 24.2302 42.625 22.1975 41.1601 20.4797C39.6952 18.762 37.8537 17.4055 35.7787 16.5158C34.7649 17.1997 33.3734 18.1695 32.8876 18.835C32.6401 19.1742 32.2881 20.9103 31.1459 21.0533C30.8489 21.09 30.4474 21.0643 30.0221 21.0368C28.8817 20.9635 27.3234 20.8627 26.8247 22.2175C26.5076 23.0755 26.4526 25.4075 27.4774 26.6175C27.6424 26.81 27.6736 27.1675 27.5617 27.569C27.4151 28.0952 27.1199 28.416 27.0264 28.482C26.8504 28.3793 26.4984 27.9705 26.2582 27.6937C25.6844 27.0245 24.9657 26.1903 24.0381 25.9337C23.7007 25.8402 23.3304 25.7632 22.9692 25.6862C21.9627 25.4753 20.8242 25.2352 20.5584 24.6705C20.3641 24.2562 20.3659 23.686 20.3659 23.0847C20.3659 22.3202 20.3659 21.4567 19.9919 20.6188C19.8619 20.3198 19.6708 20.0513 19.4309 19.8305V19.8305ZM30.0001 48.3333C19.8746 48.3333 11.6667 40.1255 11.6667 30C11.6667 19.8745 19.8746 11.6667 30.0001 11.6667C40.1256 11.6667 48.3334 19.8745 48.3334 30C48.3334 40.1255 40.1256 48.3333 30.0001 48.3333Z" fill="#019DFF"/>
</svg>
