<svg width="60" height="60" viewBox="0 0 60 60" fill="none" xmlns="http://www.w3.org/2000/svg">
<g clip-path="url(#clip0_1103_241)">
<path d="M3 15H63V45H3V15Z" fill="#1EB53A"/>
<path d="M3 15H63V30H3V15Z" fill="#0099B5"/>
<path d="M3 24.6H63V35.4H3V24.6Z" fill="#CE1126"/>
<path d="M3 25.1998H63V34.7998H3V25.1998Z" fill="white"/>
<path d="M11.3998 23.3998C13.388 23.3998 14.9998 21.7881 14.9998 19.7998C14.9998 17.8116 13.388 16.1998 11.3998 16.1998C9.41158 16.1998 7.7998 17.8116 7.7998 19.7998C7.7998 21.7881 9.41158 23.3998 11.3998 23.3998Z" fill="white"/>
<path d="M12.6 23.3998C14.5882 23.3998 16.2 21.7881 16.2 19.7998C16.2 17.8116 14.5882 16.1998 12.6 16.1998C10.6118 16.1998 9 17.8116 9 19.7998C9 21.7881 10.6118 23.3998 12.6 23.3998Z" fill="#0099B5"/>
<path d="M19.3199 21.9611L19.0977 22.6445L19.4393 22.7583" fill="white"/>
<path d="M19.3196 21.9611L19.5419 22.6445L19.2002 22.7583" fill="white"/>
<path d="M20.0031 22.4583H19.2837V22.8194" fill="white"/>
<path d="M20.0027 22.4583L19.4194 22.8833L19.2083 22.5889" fill="white"/>
<path d="M18.6362 22.4583L19.2196 22.8833L19.4307 22.5889" fill="white"/>
<path d="M18.6362 22.4583H19.3557V22.8194" fill="white"/>
<path d="M19.7468 23.2613L19.5245 22.5779L19.1829 22.6918" fill="white"/>
<path d="M19.7469 23.2611L19.1636 22.8361L19.3747 22.5417" fill="white"/>
<path d="M18.8943 23.2611L19.4776 22.8361L19.2665 22.5417" fill="white"/>
<path d="M18.8943 23.2613L19.1165 22.5779L19.4582 22.6918" fill="white"/>
<path d="M19.3199 19.0806L19.0977 19.764L19.4393 19.8778" fill="white"/>
<path d="M19.3196 19.0806L19.5419 19.764L19.2002 19.8778" fill="white"/>
<path d="M20.0031 19.5778H19.2837V19.9389" fill="white"/>
<path d="M20.0027 19.5778L19.4194 20.0028L19.2083 19.7084" fill="white"/>
<path d="M18.6362 19.5778L19.2196 20.0028L19.4307 19.7084" fill="white"/>
<path d="M18.6362 19.5778H19.3557V19.9389" fill="white"/>
<path d="M19.7468 20.3832L19.5245 19.6998L19.1829 19.8137" fill="white"/>
<path d="M19.7469 20.3834L19.1636 19.9584L19.3747 19.6639" fill="white"/>
<path d="M18.8943 20.3834L19.4776 19.9584L19.2665 19.6639" fill="white"/>
<path d="M19.3199 16.1998L19.0977 16.8832L19.4393 16.9971" fill="white"/>
<path d="M19.3196 16.1998L19.5419 16.8832L19.2002 16.9971" fill="white"/>
<path d="M20.0031 16.6974H19.2837V17.0586" fill="white"/>
<path d="M20.0027 16.6974L19.4194 17.1224L19.2083 16.828" fill="white"/>
<path d="M18.6362 16.6974L19.2196 17.1224L19.4307 16.828" fill="white"/>
<path d="M18.6362 16.6974H19.3557V17.0586" fill="white"/>
<path d="M19.7468 17.5027L19.5245 16.8193L19.1829 16.9332" fill="white"/>
<path d="M19.7469 17.5029L19.1636 17.0779L19.3747 16.7834" fill="white"/>
<path d="M18.8943 17.5029L19.4776 17.0779L19.2665 16.7834" fill="white"/>
<path d="M22.1998 21.9611L21.9775 22.6445L22.3192 22.7583" fill="white"/>
<path d="M22.1998 21.9611L22.422 22.6445L22.0803 22.7583" fill="white"/>
<path d="M22.883 22.4583H22.1636V22.8194" fill="white"/>
<path d="M22.8828 22.4583L22.2995 22.8833L22.0884 22.5889" fill="white"/>
<path d="M21.5161 22.4583L22.0994 22.8833L22.3106 22.5889" fill="white"/>
<path d="M21.5161 22.4583H22.2356V22.8194" fill="white"/>
<path d="M22.6249 23.2613L22.4027 22.5779L22.061 22.6918" fill="white"/>
<path d="M22.6251 23.2611L22.0417 22.8361L22.2529 22.5417" fill="white"/>
<path d="M21.7744 23.2611L22.3577 22.8361L22.1466 22.5417" fill="white"/>
<path d="M22.1998 19.0806L21.9775 19.764L22.3192 19.8778" fill="white"/>
<path d="M22.1998 19.0806L22.422 19.764L22.0803 19.8778" fill="white"/>
<path d="M22.883 19.5778H22.1636V19.9389" fill="white"/>
<path d="M21.5161 19.5778L22.0994 20.0028L22.3106 19.7084" fill="white"/>
<path d="M21.5161 19.5778H22.2356V19.9389" fill="white"/>
<path d="M22.6249 20.3832L22.4027 19.6998L22.061 19.8137" fill="white"/>
<path d="M21.7744 20.3834L22.3577 19.9584L22.1466 19.6639" fill="white"/>
<path d="M22.1998 16.1998L21.9775 16.8832L22.3192 16.9971" fill="white"/>
<path d="M22.1998 16.1998L22.422 16.8832L22.0803 16.9971" fill="white"/>
<path d="M22.883 16.6974H22.1636V17.0586" fill="white"/>
<path d="M21.5161 16.6974L22.0994 17.1224L22.3106 16.828" fill="white"/>
<path d="M21.5161 16.6974H22.2356V17.0586" fill="white"/>
<path d="M22.6249 17.5027L22.4027 16.8193L22.061 16.9332" fill="white"/>
<path d="M21.7744 17.5029L22.3577 17.0779L22.1466 16.7834" fill="white"/>
<path d="M25.0811 21.9611L24.8589 22.6445L25.2006 22.7583" fill="white"/>
<path d="M25.0809 21.9611L25.3031 22.6445L24.9614 22.7583" fill="white"/>
<path d="M25.7641 22.4583H25.0447V22.8194" fill="white"/>
<path d="M25.7644 22.4583L25.1811 22.8833L24.97 22.5889" fill="white"/>
<path d="M24.3977 22.4583L24.981 22.8833L25.1922 22.5889" fill="white"/>
<path d="M24.3977 22.4583H25.1172V22.8194" fill="white"/>
<path d="M25.506 23.2613L25.2838 22.5779L24.9421 22.6918" fill="white"/>
<path d="M25.5062 23.2611L24.9229 22.8361L25.134 22.5417" fill="white"/>
<path d="M24.6523 23.2611L25.2357 22.8361L25.0246 22.5417" fill="white"/>
<path d="M25.0811 19.0806L24.8589 19.764L25.2006 19.8778" fill="white"/>
<path d="M25.0809 19.0806L25.3031 19.764L24.9614 19.8778" fill="white"/>
<path d="M25.7641 19.5778H25.0447V19.9389" fill="white"/>
<path d="M24.3977 19.5778L24.981 20.0028L25.1922 19.7084" fill="white"/>
<path d="M24.3977 19.5778H25.1172V19.9389" fill="white"/>
<path d="M25.506 20.3832L25.2838 19.6998L24.9421 19.8137" fill="white"/>
<path d="M24.6523 20.3834L25.2357 19.9584L25.0246 19.6639" fill="white"/>
<path d="M25.0811 16.1998L24.8589 16.8832L25.2006 16.9971" fill="white"/>
<path d="M25.0809 16.1998L25.3031 16.8832L24.9614 16.9971" fill="white"/>
<path d="M25.7641 16.6974H25.0447V17.0586" fill="white"/>
<path d="M24.3977 16.6974L24.981 17.1224L25.1922 16.828" fill="white"/>
<path d="M24.3977 16.6974H25.1172V17.0586" fill="white"/>
<path d="M25.506 17.5027L25.2838 16.8193L24.9421 16.9332" fill="white"/>
<path d="M24.6523 17.5029L25.2357 17.0779L25.0246 16.7834" fill="white"/>
<path d="M13.5606 21.9611L13.3384 22.6445L13.68 22.7583" fill="white"/>
<path d="M13.5616 21.9611L13.7838 22.6445L13.4421 22.7583" fill="white"/>
<path d="M14.2451 22.4583H13.5256V22.8194" fill="white"/>
<path d="M14.2446 22.4583L13.6613 22.8833L13.4502 22.5889" fill="white"/>
<path d="M12.875 22.4583L13.4583 22.8833L13.6694 22.5889" fill="white"/>
<path d="M12.875 22.4583H13.5944V22.8194" fill="white"/>
<path d="M13.9867 23.2613L13.7645 22.5779L13.4229 22.6918" fill="white"/>
<path d="M13.9857 23.2611L13.4023 22.8361L13.6135 22.5417" fill="white"/>
<path d="M13.1331 23.2611L13.7164 22.8361L13.5053 22.5417" fill="white"/>
<path d="M13.1331 23.2613L13.3553 22.5779L13.6969 22.6918" fill="white"/>
<path d="M16.4385 21.9611L16.2163 22.6445L16.558 22.7583" fill="white"/>
<path d="M16.4385 21.9611L16.6608 22.6445L16.3191 22.7583" fill="white"/>
<path d="M17.1247 22.4583H16.4053V22.8194" fill="white"/>
<path d="M17.1248 22.4583L16.5414 22.8833L16.3303 22.5889" fill="white"/>
<path d="M15.7551 22.4583L16.3385 22.8833L16.5496 22.5889" fill="white"/>
<path d="M15.7551 22.4583H16.4746V22.8194" fill="white"/>
<path d="M16.8669 23.2613L16.6446 22.5779L16.303 22.6918" fill="white"/>
<path d="M16.867 23.2611L16.2837 22.8361L16.4948 22.5417" fill="white"/>
<path d="M16.0146 23.2611L16.598 22.8361L16.3869 22.5417" fill="white"/>
<path d="M16.0146 23.2613L16.2369 22.5779L16.5785 22.6918" fill="white"/>
<path d="M16.4385 19.0806L16.2163 19.764L16.558 19.8778" fill="white"/>
<path d="M16.4385 19.0806L16.6608 19.764L16.3191 19.8778" fill="white"/>
<path d="M17.1247 19.5778H16.4053V19.9389" fill="white"/>
<path d="M17.1248 19.5778L16.5414 20.0028L16.3303 19.7084" fill="white"/>
<path d="M15.7551 19.5778L16.3385 20.0028L16.5496 19.7084" fill="white"/>
<path d="M15.7551 19.5778H16.4746V19.9389" fill="white"/>
<path d="M16.8669 20.3832L16.6446 19.6998L16.303 19.8137" fill="white"/>
<path d="M16.867 20.3834L16.2837 19.9584L16.4948 19.6639" fill="white"/>
<path d="M16.0146 20.3834L16.598 19.9584L16.3869 19.6639" fill="white"/>
<path d="M16.0146 20.3832L16.2369 19.6998L16.5785 19.8137" fill="white"/>
</g>
<defs>
<clipPath id="clip0_1103_241">
<rect width="53.3333" height="30" fill="white" transform="translate(3 15)"/>
</clipPath>
</defs>
</svg>
