<svg width="18" height="18" viewBox="0 0 18 18" fill="none" xmlns="http://www.w3.org/2000/svg">
<path fill-rule="evenodd" clip-rule="evenodd" d="M15.1641 13.1002C15.9861 11.8699 16.4249 10.4235 16.4249 8.94383C16.4249 6.95968 15.6367 5.0568 14.2337 3.65379C12.8307 2.25079 10.9278 1.46259 8.94365 1.46259C7.464 1.46259 6.01758 1.90135 4.7873 2.7234C3.55701 3.54545 2.59812 4.71386 2.03188 6.08088C1.46564 7.4479 1.31749 8.95213 1.60616 10.4034C1.89482 11.8546 2.60734 13.1876 3.65361 14.2339C4.69988 15.2801 6.03292 15.9927 7.48414 16.2813C8.93536 16.57 10.4396 16.4218 11.8066 15.8556C13.1736 15.2894 14.342 14.3305 15.1641 13.1002ZM8.27609 9.83007L12.0973 6.00888L13.1792 7.09079L8.27609 11.9824L5.14548 8.85176L6.22738 7.76985L8.27609 9.83007Z" fill="#77CBFF"/>
</svg>
