<svg width="111" height="77" viewBox="0 0 111 77" fill="none" xmlns="http://www.w3.org/2000/svg">
<path d="M88.3364 24.1734H80.7776C80.7475 24.1726 80.7178 24.1803 80.6919 24.1955C80.6659 24.2107 80.6447 24.2328 80.6306 24.2594C80.6165 24.286 80.6101 24.316 80.6121 24.3461C80.6141 24.3761 80.6244 24.405 80.6418 24.4295L91.0352 38.7241C91.0556 38.7512 91.0665 38.7842 91.0665 38.8182C91.0665 38.8521 91.0556 38.8851 91.0352 38.9122L79.9528 54.3776C79.9358 54.4025 79.9259 54.4316 79.9241 54.4618C79.9223 54.492 79.9288 54.522 79.9427 54.5488C79.9566 54.5756 79.9775 54.5981 80.0032 54.614C80.0289 54.6299 80.0583 54.6385 80.0885 54.6389H87.7361C87.7622 54.6386 87.7878 54.6317 87.8106 54.6189C87.8334 54.6061 87.8526 54.5879 87.8666 54.5657L95.0391 44.3113L98.8029 38.9175C98.8211 38.8895 98.8307 38.8568 98.8307 38.8234C98.8307 38.79 98.8211 38.7573 98.8029 38.7293L88.4721 24.2466C88.4567 24.2246 88.4364 24.2066 88.4129 24.1939C88.3893 24.1812 88.3631 24.1742 88.3364 24.1734Z" fill="#019DFF"/>
<path d="M109.353 54.639H102.243C102.181 54.6387 102.12 54.6233 102.066 54.5941C102.011 54.565 101.964 54.523 101.93 54.4718L97.1219 47.2016C97.0534 47.1046 97.0166 46.9886 97.0166 46.8698C97.0166 46.7509 97.0534 46.6349 97.1219 46.5379L100.463 41.7399C100.5 41.6871 100.549 41.6439 100.606 41.6142C100.664 41.5844 100.727 41.5688 100.792 41.5688C100.856 41.5688 100.92 41.5844 100.977 41.6142C101.034 41.6439 101.084 41.6871 101.121 41.7399L109.661 54.0379C109.701 54.0948 109.724 54.1616 109.729 54.231C109.734 54.3004 109.72 54.3698 109.688 54.4316C109.656 54.4935 109.608 54.5456 109.549 54.5821C109.49 54.6187 109.422 54.6383 109.353 54.639Z" fill="#019DFF"/>
<path d="M109.566 24.4451L101.005 36.1317C100.99 36.1543 100.969 36.1728 100.945 36.1856C100.921 36.1985 100.894 36.2052 100.867 36.2052C100.839 36.2052 100.812 36.1985 100.788 36.1856C100.764 36.1728 100.744 36.1543 100.728 36.1317L97.048 30.9678C97.0276 30.9388 97.0166 30.9041 97.0166 30.8685C97.0166 30.833 97.0276 30.7983 97.048 30.7692L101.746 24.2465C101.763 24.2245 101.784 24.2065 101.808 24.1938C101.833 24.1811 101.86 24.1741 101.887 24.1733H109.425C109.457 24.1733 109.488 24.182 109.515 24.1984C109.542 24.2148 109.564 24.2383 109.578 24.2663C109.593 24.2944 109.599 24.3259 109.597 24.3574C109.595 24.3889 109.584 24.4193 109.566 24.4451Z" fill="#C01C1C"/>
<path d="M6.86981 24.4399V54.3723C6.86853 54.4417 6.84078 54.508 6.79224 54.5575C6.74371 54.6071 6.67808 54.6362 6.6088 54.6388H0.261061C0.191362 54.6375 0.124979 54.6088 0.0761744 54.5589C0.0273702 54.5091 3.88084e-05 54.4421 5.22108e-05 54.3723V24.4399C-0.000642188 24.4051 0.00559609 24.3706 0.0184018 24.3383C0.0312075 24.306 0.0503232 24.2765 0.0746296 24.2517C0.098936 24.2269 0.127945 24.2072 0.159957 24.1937C0.191969 24.1803 0.226341 24.1733 0.261061 24.1733H6.6088C6.6785 24.1747 6.74488 24.2034 6.79369 24.2532C6.84249 24.3031 6.86982 24.3701 6.86981 24.4399Z" fill="black"/>
<path d="M29.3273 24.1733H23.5851C21.1734 24.1733 14.8517 24.1733 12.9986 24.1733C12.8601 24.1733 12.7274 24.2284 12.6295 24.3264C12.5316 24.4244 12.4766 24.5574 12.4766 24.696V54.1162C12.4766 54.2548 12.5316 54.3877 12.6295 54.4858C12.7274 54.5838 12.8601 54.6388 12.9986 54.6388H29.3273C36.2388 54.6388 38.9481 50.306 38.9481 44.9645V33.8477C38.9508 32.58 38.7042 31.3241 38.2222 30.1519C37.7402 28.9796 37.0323 27.9139 36.1389 27.0155C35.2455 26.1172 34.1842 25.4038 33.0154 24.9162C31.8467 24.4285 30.5935 24.1761 29.3273 24.1733ZM32.0783 43.0202C32.0783 46.5011 30.5436 47.7607 26.6285 47.7607H20.3068C20.145 47.7607 19.3568 47.7607 19.3568 47.4262V31.3912C19.3568 31.1717 19.4873 31.0567 19.6491 31.0567H26.6233C29.6353 31.0567 32.0731 32.3163 32.0731 35.7972L32.0783 43.0202Z" fill="black"/>
<path d="M61.0243 47.0604H57.9444C57.9022 47.0591 57.8609 47.0481 57.8238 47.0282C57.7866 47.0082 57.7546 46.9799 57.7303 46.9454C57.7303 46.9454 52.2335 37.9244 51.5183 36.7588C51.4957 36.7207 51.4637 36.6891 51.4252 36.6672C51.3868 36.6452 51.3433 36.6335 51.2991 36.6334H50.704C50.6348 36.6334 50.5684 36.6609 50.5194 36.71C50.4705 36.759 50.443 36.8254 50.443 36.8947V54.3775C50.443 54.4468 50.4155 54.5133 50.3665 54.5623C50.3176 54.6113 50.2512 54.6388 50.182 54.6388H43.8499C43.7807 54.6388 43.7143 54.6113 43.6653 54.5623C43.6164 54.5133 43.5889 54.4468 43.5889 54.3775V24.4347C43.5889 24.3654 43.6164 24.2989 43.6653 24.2499C43.7143 24.2009 43.7807 24.1733 43.8499 24.1733H50.1872C50.3699 24.1733 50.5474 24.4556 50.61 24.5497L50.6361 24.5915C52.0664 26.7239 58.1166 36.3982 58.8683 37.6055C58.8919 37.6423 58.9244 37.6726 58.9627 37.6936C59.001 37.7146 59.0439 37.7257 59.0876 37.7258H59.8758C59.9195 37.7257 59.9625 37.7146 60.0008 37.6936C60.0391 37.6726 60.0715 37.6423 60.0951 37.6055C60.8468 36.3982 66.8813 26.7239 68.3221 24.5915L68.3482 24.5497C68.4108 24.4556 68.5883 24.1733 68.771 24.1733H75.1135C75.1828 24.1733 75.2492 24.2009 75.2981 24.2499C75.3471 24.2989 75.3746 24.3654 75.3746 24.4347V54.3775C75.3746 54.4468 75.3471 54.5133 75.2981 54.5623C75.2492 54.6113 75.1828 54.6388 75.1135 54.6388H68.771C68.7018 54.6388 68.6354 54.6113 68.5865 54.5623C68.5375 54.5133 68.51 54.4468 68.51 54.3775V36.9C68.51 36.8307 68.4825 36.7642 68.4336 36.7152C68.3846 36.6662 68.3182 36.6386 68.249 36.6386H67.6539C67.6101 36.6377 67.5667 36.6483 67.5282 36.6694C67.4898 36.6905 67.4575 36.7213 67.4347 36.7588C66.7247 37.9296 61.2383 46.9245 61.2331 46.9454C61.2088 46.9799 61.1768 47.0082 61.1396 47.0282C61.1025 47.0481 61.0612 47.0591 61.0191 47.0604" fill="black"/>
</svg>
