<svg width="111" height="77" viewBox="0 0 111 77" fill="none" xmlns="http://www.w3.org/2000/svg">
<path d="M88.3364 24.1739H80.7776C80.7475 24.1731 80.7178 24.1808 80.6919 24.196C80.6659 24.2112 80.6447 24.2333 80.6306 24.2599C80.6165 24.2865 80.6101 24.3165 80.6121 24.3466C80.6141 24.3766 80.6244 24.4055 80.6418 24.43L91.0352 38.7246C91.0556 38.7517 91.0665 38.7847 91.0665 38.8187C91.0665 38.8526 91.0556 38.8856 91.0352 38.9127L79.9528 54.3781C79.9358 54.403 79.9259 54.4321 79.9241 54.4623C79.9223 54.4925 79.9288 54.5225 79.9427 54.5493C79.9566 54.5761 79.9775 54.5986 80.0032 54.6145C80.0289 54.6304 80.0583 54.639 80.0885 54.6394H87.7361C87.7622 54.6391 87.7878 54.6322 87.8106 54.6194C87.8334 54.6066 87.8526 54.5884 87.8666 54.5662L95.0391 44.3118L98.8029 38.918C98.8211 38.89 98.8307 38.8573 98.8307 38.8239C98.8307 38.7905 98.8211 38.7578 98.8029 38.7298L88.4721 24.2471C88.4567 24.2251 88.4364 24.2071 88.4129 24.1944C88.3893 24.1817 88.3631 24.1747 88.3364 24.1739Z" fill="#019DFF"/>
<path d="M109.352 54.6386H102.242C102.18 54.6383 102.119 54.6229 102.065 54.5937C102.01 54.5646 101.963 54.5226 101.929 54.4714L97.1209 47.2012C97.0524 47.1042 97.0156 46.9882 97.0156 46.8694C97.0156 46.7505 97.0524 46.6345 97.1209 46.5375L100.462 41.7395C100.499 41.6867 100.548 41.6435 100.605 41.6138C100.663 41.584 100.726 41.5684 100.791 41.5684C100.855 41.5684 100.919 41.584 100.976 41.6138C101.033 41.6435 101.083 41.6867 101.12 41.7395L109.66 54.0375C109.7 54.0944 109.723 54.1612 109.728 54.2306C109.733 54.3 109.719 54.3694 109.687 54.4312C109.655 54.4931 109.607 54.5452 109.548 54.5817C109.489 54.6183 109.421 54.6379 109.352 54.6386Z" fill="#019DFF"/>
<path d="M109.565 24.4456L101.004 36.1322C100.989 36.1548 100.968 36.1733 100.944 36.1861C100.92 36.199 100.893 36.2057 100.866 36.2057C100.838 36.2057 100.811 36.199 100.787 36.1861C100.763 36.1733 100.743 36.1548 100.727 36.1322L97.047 30.9683C97.0266 30.9393 97.0156 30.9046 97.0156 30.869C97.0156 30.8335 97.0266 30.7988 97.047 30.7697L101.745 24.247C101.762 24.225 101.783 24.207 101.807 24.1943C101.832 24.1816 101.859 24.1746 101.886 24.1738H109.424C109.456 24.1738 109.487 24.1825 109.514 24.1989C109.541 24.2153 109.563 24.2388 109.577 24.2668C109.592 24.2949 109.598 24.3264 109.596 24.3579C109.594 24.3894 109.583 24.4198 109.565 24.4456Z" fill="#FC5151"/>
<path d="M6.86981 24.4404V54.3728C6.86853 54.4422 6.84078 54.5085 6.79224 54.558C6.74371 54.6076 6.67808 54.6367 6.6088 54.6393H0.261061C0.191362 54.638 0.124979 54.6093 0.0761744 54.5594C0.0273702 54.5096 3.88085e-05 54.4426 5.22109e-05 54.3728V24.4404C-0.000642188 24.4056 0.00559609 24.3711 0.0184018 24.3388C0.0312075 24.3065 0.0503232 24.277 0.0746296 24.2522C0.098936 24.2274 0.127945 24.2077 0.159957 24.1942C0.191969 24.1808 0.226341 24.1738 0.261061 24.1738H6.6088C6.6785 24.1752 6.74488 24.2039 6.79369 24.2537C6.84249 24.3036 6.86982 24.3706 6.86981 24.4404Z" fill="white"/>
<path d="M29.3273 24.1738H23.5851C21.1734 24.1738 14.8517 24.1738 12.9986 24.1738C12.8601 24.1738 12.7274 24.2289 12.6295 24.3269C12.5316 24.4249 12.4766 24.5579 12.4766 24.6965V54.1167C12.4766 54.2553 12.5316 54.3882 12.6295 54.4863C12.7274 54.5843 12.8601 54.6393 12.9986 54.6393H29.3273C36.2388 54.6393 38.9481 50.3065 38.9481 44.965V33.8482C38.9508 32.5805 38.7042 31.3246 38.2222 30.1524C37.7402 28.9801 37.0323 27.9144 36.1389 27.016C35.2455 26.1177 34.1842 25.4043 33.0154 24.9167C31.8467 24.429 30.5935 24.1766 29.3273 24.1738ZM32.0783 43.0207C32.0783 46.5016 30.5436 47.7612 26.6285 47.7612H20.3068C20.145 47.7612 19.3568 47.7612 19.3568 47.4267V31.3917C19.3568 31.1722 19.4873 31.0572 19.6491 31.0572H26.6233C29.6353 31.0572 32.0731 32.3168 32.0731 35.7977L32.0783 43.0207Z" fill="white"/>
<path d="M61.0252 47.0609H57.9453C57.9031 47.0596 57.8618 47.0486 57.8247 47.0287C57.7875 47.0087 57.7555 46.9804 57.7312 46.9459C57.7312 46.9459 52.2344 37.9249 51.5192 36.7593C51.4966 36.7212 51.4646 36.6896 51.4261 36.6677C51.3877 36.6457 51.3442 36.634 51.3 36.6339H50.7049C50.6357 36.6339 50.5693 36.6614 50.5203 36.7105C50.4714 36.7595 50.4439 36.8259 50.4439 36.8952V54.378C50.4439 54.4473 50.4164 54.5138 50.3674 54.5628C50.3185 54.6118 50.2521 54.6393 50.1829 54.6393H43.8508C43.7816 54.6393 43.7152 54.6118 43.6662 54.5628C43.6173 54.5138 43.5898 54.4473 43.5898 54.378V24.4352C43.5898 24.3659 43.6173 24.2994 43.6662 24.2504C43.7152 24.2014 43.7816 24.1738 43.8508 24.1738H50.1881C50.3708 24.1738 50.5483 24.4561 50.6109 24.5502L50.637 24.592C52.0673 26.7244 58.1175 36.3987 58.8692 37.606C58.8928 37.6428 58.9253 37.6731 58.9636 37.6941C59.0019 37.7151 59.0448 37.7262 59.0885 37.7263H59.8767C59.9204 37.7262 59.9634 37.7151 60.0017 37.6941C60.04 37.6731 60.0724 37.6428 60.096 37.606C60.8477 36.3987 66.8822 26.7244 68.323 24.592L68.3491 24.5502C68.4117 24.4561 68.5892 24.1738 68.7719 24.1738H75.1144C75.1837 24.1738 75.2501 24.2014 75.299 24.2504C75.348 24.2994 75.3755 24.3659 75.3755 24.4352V54.378C75.3755 54.4473 75.348 54.5138 75.299 54.5628C75.2501 54.6118 75.1837 54.6393 75.1144 54.6393H68.7719C68.7027 54.6393 68.6363 54.6118 68.5874 54.5628C68.5384 54.5138 68.5109 54.4473 68.5109 54.378V36.9005C68.5109 36.8312 68.4834 36.7647 68.4345 36.7157C68.3855 36.6667 68.3191 36.6391 68.2499 36.6391H67.6548C67.611 36.6382 67.5676 36.6488 67.5291 36.6699C67.4907 36.691 67.4584 36.7218 67.4356 36.7593C66.7256 37.9301 61.2392 46.925 61.234 46.9459C61.2097 46.9804 61.1777 47.0087 61.1405 47.0287C61.1034 47.0486 61.0621 47.0596 61.02 47.0609" fill="white"/>
</svg>
